<svg id="svg" version="1.1" xmlns="http://www.w3.org/2000/svg" xmlns:xlink="http://www.w3.org/1999/xlink" width="400" height="360.6102635228849" viewBox="0, 0, 400,360.6102635228849"><g id="svgg"><path id="path0" d="M80.141 20.225 C 80.212 20.439,80.357 20.560,80.463 20.496 C 80.628 20.395,81.334 20.902,83.574 22.729 C 83.813 22.924,84.183 23.084,84.396 23.084 C 84.609 23.084,84.877 23.327,84.991 23.625 C 85.105 23.922,85.511 24.166,85.893 24.166 C 86.275 24.166,86.675 24.395,86.782 24.674 C 86.890 24.954,87.371 25.282,87.853 25.403 C 88.335 25.524,88.729 25.782,88.729 25.976 C 88.729 26.171,88.972 26.330,89.270 26.330 C 89.567 26.330,89.811 26.473,89.811 26.647 C 89.811 26.821,90.298 27.166,90.893 27.412 C 91.488 27.659,91.975 28.003,91.975 28.177 C 91.975 28.352,92.201 28.494,92.477 28.494 C 92.754 28.494,93.073 28.738,93.187 29.035 C 93.301 29.333,93.725 29.576,94.128 29.576 C 94.531 29.576,94.860 29.743,94.860 29.946 C 94.860 30.149,95.225 30.473,95.672 30.666 C 96.885 31.191,97.891 31.865,98.214 32.372 C 98.373 32.619,98.738 32.822,99.026 32.822 C 99.314 32.822,99.549 32.982,99.549 33.176 C 99.549 33.371,99.955 33.632,100.451 33.756 C 100.947 33.881,101.353 34.100,101.353 34.243 C 101.353 34.387,102.205 35.052,103.246 35.721 C 104.288 36.390,105.194 37.067,105.260 37.224 C 105.326 37.382,105.615 37.511,105.903 37.511 C 106.190 37.511,106.518 37.755,106.632 38.052 C 106.747 38.350,107.152 38.593,107.534 38.593 C 107.916 38.593,108.316 38.822,108.423 39.102 C 108.531 39.381,109.012 39.709,109.494 39.830 C 109.976 39.951,110.370 40.209,110.370 40.404 C 110.370 40.598,110.613 40.757,110.911 40.757 C 111.208 40.757,111.452 40.900,111.452 41.074 C 111.452 41.249,111.939 41.593,112.534 41.839 C 113.129 42.086,113.616 42.430,113.616 42.605 C 113.616 42.779,113.859 42.922,114.157 42.922 C 114.454 42.922,114.698 43.088,114.698 43.291 C 114.698 43.494,115.063 43.821,115.509 44.018 C 115.956 44.214,116.808 44.695,117.403 45.087 C 117.998 45.479,118.729 45.910,119.026 46.046 C 119.324 46.182,119.697 46.509,119.856 46.772 C 120.014 47.035,120.379 47.250,120.667 47.250 C 120.955 47.250,121.190 47.401,121.190 47.586 C 121.190 47.771,121.546 48.036,121.982 48.174 C 122.417 48.312,123.061 48.769,123.412 49.190 C 123.764 49.611,124.057 49.819,124.064 49.652 C 124.070 49.486,124.603 49.772,125.248 50.289 C 125.893 50.806,126.583 51.356,126.781 51.511 C 126.979 51.667,127.426 51.903,127.773 52.036 C 128.120 52.168,128.404 52.444,128.404 52.649 C 128.404 52.853,128.734 53.021,129.137 53.021 C 129.540 53.021,129.957 53.250,130.064 53.529 C 130.172 53.809,130.654 54.137,131.135 54.257 C 131.617 54.378,132.011 54.636,132.011 54.831 C 132.011 55.026,132.254 55.185,132.552 55.185 C 132.849 55.185,133.093 55.356,133.093 55.564 C 133.093 55.773,133.580 56.113,134.175 56.321 C 134.770 56.528,135.257 56.845,135.257 57.024 C 135.257 57.203,135.483 57.349,135.759 57.349 C 136.036 57.349,136.355 57.592,136.469 57.890 C 136.584 58.188,137.007 58.431,137.410 58.431 C 137.813 58.431,138.142 58.597,138.142 58.801 C 138.142 59.004,138.508 59.328,138.954 59.521 C 140.167 60.046,141.173 60.720,141.497 61.226 C 141.655 61.474,142.021 61.677,142.308 61.677 C 142.596 61.677,142.831 61.836,142.831 62.031 C 142.831 62.226,143.237 62.487,143.733 62.611 C 144.229 62.736,144.635 62.955,144.635 63.098 C 144.635 63.242,145.487 63.907,146.528 64.576 C 147.570 65.245,148.476 65.921,148.542 66.079 C 148.608 66.237,148.897 66.366,149.185 66.366 C 149.472 66.366,149.800 66.610,149.915 66.907 C 150.029 67.205,150.421 67.448,150.787 67.448 C 151.153 67.448,151.582 67.651,151.740 67.899 C 152.078 68.427,153.205 69.183,154.103 69.484 C 154.450 69.601,154.734 69.848,154.734 70.034 C 154.734 70.219,155.221 70.541,155.816 70.748 C 156.411 70.956,156.898 71.272,156.898 71.451 C 156.898 71.630,157.142 71.776,157.439 71.776 C 157.737 71.776,157.980 71.943,157.980 72.146 C 157.980 72.349,158.345 72.676,158.792 72.873 C 159.238 73.069,160.090 73.550,160.685 73.942 C 161.280 74.333,162.011 74.765,162.308 74.901 C 162.606 75.037,162.979 75.364,163.138 75.627 C 163.296 75.889,163.662 76.105,163.949 76.105 C 164.237 76.105,164.472 76.256,164.472 76.441 C 164.472 76.626,164.838 76.893,165.284 77.034 C 165.730 77.175,166.380 77.616,166.727 78.015 C 167.074 78.414,167.363 78.593,167.370 78.414 C 167.377 78.235,167.670 78.433,168.021 78.853 C 168.373 79.274,169.017 79.731,169.452 79.870 C 169.887 80.008,170.243 80.272,170.243 80.457 C 170.243 80.642,170.492 80.794,170.796 80.794 C 171.100 80.794,171.442 81.037,171.556 81.335 C 171.670 81.632,172.063 81.876,172.428 81.876 C 172.794 81.876,173.223 82.078,173.382 82.326 C 173.719 82.854,174.846 83.610,175.744 83.912 C 176.091 84.028,176.375 84.276,176.375 84.461 C 176.375 84.647,176.862 84.968,177.457 85.176 C 178.052 85.383,178.539 85.699,178.539 85.878 C 178.539 86.057,178.783 86.204,179.080 86.204 C 179.378 86.204,179.621 86.370,179.621 86.573 C 179.621 86.777,179.986 87.104,180.433 87.300 C 180.879 87.497,181.731 87.978,182.326 88.369 C 182.922 88.761,183.652 89.193,183.950 89.329 C 184.247 89.465,184.620 89.791,184.779 90.054 C 184.938 90.317,185.303 90.532,185.591 90.532 C 185.878 90.532,186.114 90.683,186.114 90.868 C 186.114 91.053,186.479 91.320,186.925 91.461 C 187.372 91.602,188.021 92.043,188.368 92.442 C 188.715 92.841,189.004 93.021,189.011 92.841 C 189.018 92.662,189.311 92.860,189.662 93.281 C 190.014 93.702,190.658 94.159,191.093 94.297 C 191.528 94.435,191.885 94.700,191.885 94.885 C 191.885 95.070,192.133 95.221,192.437 95.221 C 192.741 95.221,193.083 95.464,193.197 95.762 C 193.311 96.060,193.717 96.303,194.099 96.303 C 194.480 96.303,194.880 96.530,194.987 96.808 C 195.093 97.086,195.453 97.406,195.787 97.519 C 196.638 97.808,197.744 98.554,198.236 99.170 C 198.975 100.097,201.019 99.803,202.614 98.539 C 203.416 97.904,204.251 97.385,204.470 97.385 C 204.690 97.385,204.869 97.226,204.869 97.031 C 204.869 96.837,205.263 96.579,205.745 96.458 C 206.226 96.337,206.708 96.009,206.816 95.729 C 206.923 95.450,207.259 95.221,207.563 95.221 C 207.867 95.221,208.115 95.070,208.115 94.885 C 208.115 94.700,208.481 94.433,208.927 94.292 C 209.373 94.151,210.023 93.709,210.370 93.311 C 210.717 92.912,211.006 92.732,211.013 92.911 C 211.020 93.091,211.340 92.860,211.724 92.398 C 212.109 91.937,212.573 91.652,212.756 91.765 C 212.940 91.878,213.183 91.726,213.298 91.426 C 213.413 91.127,213.917 90.726,214.418 90.536 C 214.919 90.345,215.329 90.023,215.329 89.820 C 215.329 89.616,215.659 89.450,216.062 89.450 C 216.465 89.450,216.888 89.206,217.002 88.909 C 217.116 88.611,217.372 88.368,217.570 88.368 C 217.768 88.368,218.545 87.881,219.297 87.286 C 220.048 86.691,220.842 86.204,221.062 86.204 C 221.281 86.204,221.461 86.057,221.461 85.878 C 221.461 85.699,221.907 85.388,222.453 85.187 C 222.998 84.986,223.916 84.402,224.493 83.889 C 225.069 83.377,225.759 82.958,226.025 82.958 C 226.292 82.958,226.510 82.798,226.510 82.604 C 226.510 82.409,226.904 82.151,227.386 82.030 C 227.868 81.909,228.349 81.582,228.457 81.302 C 228.564 81.022,228.900 80.794,229.204 80.794 C 229.508 80.794,229.757 80.642,229.757 80.457 C 229.757 80.272,230.122 80.005,230.568 79.865 C 231.014 79.724,231.664 79.282,232.011 78.883 C 232.358 78.485,232.647 78.305,232.654 78.484 C 232.661 78.663,232.981 78.432,233.365 77.971 C 233.750 77.509,234.214 77.224,234.398 77.337 C 234.581 77.451,234.825 77.298,234.939 76.999 C 235.054 76.699,235.558 76.299,236.059 76.108 C 236.560 75.918,236.970 75.595,236.970 75.392 C 236.970 75.189,237.295 75.023,237.692 75.023 C 238.088 75.023,238.413 74.855,238.413 74.651 C 238.413 74.446,238.697 74.176,239.044 74.050 C 239.391 73.924,240.267 73.361,240.990 72.799 C 241.713 72.236,242.484 71.776,242.703 71.776 C 242.922 71.776,243.102 71.630,243.102 71.451 C 243.102 71.272,243.548 70.950,244.094 70.735 C 245.402 70.219,246.461 69.538,246.817 68.981 C 246.975 68.733,247.341 68.530,247.628 68.530 C 247.916 68.530,248.151 68.371,248.151 68.176 C 248.151 67.982,248.546 67.724,249.027 67.603 C 249.509 67.482,249.991 67.154,250.098 66.875 C 250.205 66.595,250.542 66.366,250.845 66.366 C 251.149 66.366,251.398 66.215,251.398 66.030 C 251.398 65.845,251.750 65.581,252.181 65.445 C 253.007 65.182,253.403 64.901,254.845 63.551 C 255.333 63.094,255.876 62.809,256.052 62.918 C 256.228 63.027,256.466 62.871,256.581 62.571 C 256.695 62.272,257.199 61.871,257.700 61.681 C 258.201 61.490,258.611 61.168,258.611 60.965 C 258.611 60.761,258.936 60.595,259.333 60.595 C 259.729 60.595,260.054 60.428,260.054 60.223 C 260.054 60.019,260.338 59.748,260.685 59.622 C 261.032 59.496,261.908 58.933,262.631 58.371 C 263.354 57.809,264.125 57.349,264.344 57.349 C 264.563 57.349,264.743 57.198,264.743 57.013 C 264.743 56.828,265.108 56.562,265.555 56.423 C 266.001 56.284,266.958 55.705,267.680 55.137 C 268.403 54.568,269.174 54.103,269.394 54.103 C 269.613 54.103,269.793 53.944,269.793 53.749 C 269.793 53.554,270.187 53.296,270.668 53.175 C 271.150 53.055,271.632 52.727,271.739 52.447 C 271.846 52.167,272.183 51.939,272.486 51.939 C 272.790 51.939,273.039 51.787,273.039 51.602 C 273.039 51.417,273.404 51.151,273.850 51.010 C 274.297 50.869,274.946 50.427,275.293 50.028 C 275.640 49.630,275.924 49.434,275.924 49.594 C 275.924 49.754,276.240 49.521,276.626 49.075 C 277.013 48.630,277.483 48.361,277.671 48.477 C 277.859 48.593,278.107 48.443,278.222 48.144 C 278.337 47.845,278.840 47.444,279.342 47.253 C 279.843 47.063,280.252 46.741,280.252 46.537 C 280.252 46.334,280.577 46.168,280.974 46.168 C 281.371 46.168,281.695 46.000,281.695 45.796 C 281.695 45.591,281.979 45.321,282.326 45.195 C 282.674 45.069,283.549 44.506,284.272 43.944 C 284.995 43.382,285.766 42.922,285.985 42.922 C 286.205 42.922,286.384 42.770,286.384 42.585 C 286.384 42.400,286.749 42.135,287.196 41.996 C 287.642 41.857,288.599 41.278,289.322 40.709 C 290.044 40.141,290.815 39.675,291.035 39.675 C 291.254 39.675,291.434 39.516,291.434 39.322 C 291.434 39.127,291.828 38.869,292.309 38.748 C 292.791 38.627,293.273 38.299,293.380 38.020 C 293.487 37.740,293.824 37.511,294.128 37.511 C 294.431 37.511,294.680 37.352,294.680 37.157 C 294.680 36.963,295.086 36.702,295.582 36.577 C 296.078 36.453,296.483 36.201,296.483 36.018 C 296.483 35.835,296.767 35.580,297.115 35.451 C 297.462 35.322,298.021 34.907,298.358 34.528 C 298.694 34.148,299.124 33.933,299.312 34.050 C 299.500 34.166,299.748 34.016,299.863 33.717 C 299.978 33.417,300.482 33.016,300.983 32.826 C 301.484 32.635,301.894 32.332,301.894 32.152 C 301.894 31.972,302.178 31.726,302.525 31.606 C 302.872 31.486,303.643 31.063,304.238 30.666 C 304.833 30.269,305.685 29.754,306.132 29.522 C 306.578 29.290,306.943 28.963,306.943 28.797 C 306.943 28.630,307.187 28.494,307.484 28.494 C 307.782 28.494,308.025 28.348,308.025 28.169 C 308.025 27.990,308.512 27.674,309.107 27.466 C 309.702 27.259,310.189 26.937,310.189 26.752 C 310.189 26.566,310.473 26.319,310.821 26.202 C 311.543 25.960,312.638 25.275,313.356 24.617 C 313.626 24.369,314.062 24.166,314.324 24.166 C 314.587 24.166,314.895 23.922,315.009 23.625 C 315.123 23.327,315.465 23.084,315.769 23.084 C 316.072 23.084,316.321 22.932,316.321 22.747 C 316.321 22.562,316.686 22.296,317.133 22.155 C 317.579 22.014,318.158 21.594,318.420 21.223 C 318.681 20.851,319.046 20.640,319.231 20.755 C 319.416 20.869,319.567 20.709,319.567 20.400 C 319.567 19.694,318.174 19.649,317.907 20.346 C 317.799 20.626,317.318 20.954,316.836 21.074 C 316.354 21.195,315.960 21.453,315.960 21.648 C 315.960 21.843,315.712 22.002,315.408 22.002 C 315.104 22.002,314.762 22.245,314.648 22.543 C 314.534 22.840,314.151 23.084,313.796 23.084 C 313.442 23.084,313.059 23.327,312.944 23.625 C 312.830 23.922,312.502 24.166,312.215 24.166 C 311.927 24.166,311.638 24.288,311.572 24.436 C 311.396 24.832,309.196 26.330,308.791 26.330 C 308.601 26.330,308.392 26.452,308.326 26.601 C 308.144 27.010,305.943 28.494,305.518 28.494 C 305.313 28.494,304.943 28.819,304.695 29.216 C 304.448 29.612,304.052 29.937,303.816 29.937 C 303.581 29.937,303.167 30.140,302.896 30.388 C 302.231 30.997,301.162 31.668,300.180 32.093 C 299.734 32.286,299.369 32.593,299.369 32.774 C 299.369 32.956,298.963 33.207,298.467 33.331 C 297.971 33.456,297.565 33.717,297.565 33.911 C 297.565 34.106,297.317 34.265,297.013 34.265 C 296.709 34.265,296.367 34.509,296.253 34.806 C 296.139 35.104,295.831 35.347,295.569 35.347 C 295.307 35.347,294.871 35.550,294.600 35.798 C 293.893 36.447,292.791 37.139,292.090 37.377 C 291.756 37.490,291.396 37.810,291.290 38.088 C 291.183 38.366,290.861 38.593,290.573 38.593 C 290.286 38.593,289.997 38.715,289.931 38.864 C 289.755 39.259,287.555 40.757,287.150 40.757 C 286.960 40.757,286.751 40.879,286.685 41.028 C 286.503 41.437,284.302 42.922,283.877 42.922 C 283.672 42.922,283.302 43.246,283.054 43.643 C 282.806 44.040,282.411 44.364,282.175 44.364 C 281.940 44.364,281.525 44.567,281.255 44.815 C 280.590 45.424,279.521 46.096,278.539 46.520 C 278.093 46.713,277.728 47.020,277.728 47.202 C 277.728 47.384,277.322 47.634,276.826 47.759 C 276.330 47.883,275.924 48.144,275.924 48.339 C 275.924 48.533,275.676 48.693,275.372 48.693 C 275.068 48.693,274.726 48.936,274.612 49.234 C 274.498 49.531,274.190 49.775,273.928 49.775 C 273.665 49.775,273.230 49.977,272.959 50.225 C 272.370 50.766,271.259 51.492,270.514 51.824 C 270.216 51.956,269.843 52.280,269.685 52.543 C 269.526 52.806,269.174 53.021,268.903 53.021 C 268.632 53.021,268.356 53.142,268.290 53.291 C 268.107 53.702,265.906 55.185,265.479 55.185 C 265.273 55.185,265.104 55.307,265.103 55.455 C 265.103 55.604,264.281 56.188,263.275 56.752 C 262.270 57.317,261.366 57.992,261.266 58.253 C 261.166 58.513,260.690 58.825,260.208 58.946 C 259.727 59.067,259.333 59.325,259.333 59.520 C 259.333 59.715,259.084 59.874,258.780 59.874 C 258.477 59.874,258.135 60.117,258.020 60.415 C 257.906 60.712,257.500 60.956,257.119 60.956 C 256.737 60.956,256.337 61.185,256.229 61.464 C 256.122 61.744,255.640 62.072,255.159 62.193 C 254.677 62.313,254.283 62.572,254.283 62.766 C 254.283 62.961,254.035 63.120,253.731 63.120 C 253.427 63.120,253.091 63.349,252.983 63.628 C 252.876 63.908,252.394 64.236,251.913 64.357 C 251.431 64.478,251.037 64.736,251.037 64.930 C 251.037 65.125,250.794 65.284,250.496 65.284 C 250.198 65.284,249.955 65.443,249.955 65.638 C 249.955 65.832,249.549 66.094,249.053 66.218 C 248.557 66.342,248.151 66.566,248.151 66.714 C 248.151 67.028,244.256 69.612,243.782 69.612 C 243.606 69.612,243.462 69.734,243.462 69.883 C 243.462 70.032,242.639 70.615,241.634 71.180 C 240.629 71.744,239.725 72.420,239.625 72.680 C 239.525 72.941,239.049 73.253,238.567 73.374 C 238.086 73.495,237.692 73.753,237.692 73.947 C 237.692 74.142,237.443 74.301,237.139 74.301 C 236.835 74.301,236.493 74.545,236.379 74.842 C 236.265 75.140,235.957 75.383,235.695 75.383 C 235.433 75.383,234.997 75.586,234.726 75.834 C 234.062 76.443,232.992 77.115,232.011 77.539 C 231.564 77.732,231.199 78.056,231.199 78.260 C 231.199 78.463,230.967 78.629,230.684 78.629 C 230.401 78.629,229.947 78.832,229.677 79.080 C 228.969 79.729,227.868 80.421,227.167 80.659 C 226.833 80.772,226.473 81.092,226.366 81.370 C 226.260 81.648,225.937 81.876,225.650 81.876 C 225.363 81.876,225.074 81.997,225.008 82.146 C 224.825 82.557,222.624 84.040,222.197 84.040 C 221.990 84.040,221.821 84.161,221.821 84.310 C 221.821 84.459,220.998 85.043,219.993 85.607 C 218.988 86.172,218.084 86.847,217.984 87.108 C 217.884 87.368,217.408 87.680,216.926 87.801 C 216.445 87.922,216.050 88.180,216.050 88.375 C 216.050 88.569,215.802 88.729,215.498 88.729 C 215.194 88.729,214.852 88.972,214.738 89.270 C 214.624 89.567,214.316 89.811,214.054 89.811 C 213.792 89.811,213.356 90.014,213.085 90.261 C 212.421 90.871,211.351 91.542,210.370 91.967 C 209.923 92.160,209.558 92.466,209.558 92.648 C 209.558 92.830,209.152 93.080,208.656 93.205 C 208.161 93.329,207.755 93.590,207.755 93.785 C 207.755 93.980,207.506 94.139,207.202 94.139 C 206.899 94.139,206.563 94.366,206.456 94.644 C 206.349 94.922,205.989 95.242,205.656 95.355 C 205.062 95.557,203.783 96.307,203.427 96.664 C 202.907 97.183,200.884 98.467,200.586 98.467 C 200.396 98.467,200.159 98.670,200.059 98.918 C 199.913 99.279,199.871 99.279,199.848 98.918 C 199.832 98.670,199.571 98.467,199.267 98.467 C 198.964 98.467,198.622 98.224,198.507 97.926 C 198.393 97.628,198.085 97.385,197.823 97.385 C 197.561 97.385,197.125 97.182,196.855 96.934 C 196.265 96.394,195.154 95.668,194.409 95.336 C 194.112 95.203,193.739 94.880,193.580 94.617 C 193.421 94.354,193.056 94.139,192.768 94.139 C 192.481 94.139,192.245 93.987,192.245 93.802 C 192.245 93.617,191.880 93.352,191.434 93.213 C 190.987 93.074,190.541 92.860,190.442 92.738 C 190.054 92.260,187.926 90.893,187.571 90.893 C 187.365 90.893,187.196 90.733,187.196 90.539 C 187.196 90.344,186.802 90.086,186.320 89.965 C 185.838 89.844,185.357 89.517,185.249 89.237 C 185.142 88.957,184.806 88.729,184.502 88.729 C 184.198 88.729,183.950 88.577,183.950 88.392 C 183.950 88.207,183.598 87.944,183.169 87.808 C 182.739 87.672,182.040 87.214,181.616 86.792 C 181.191 86.369,180.244 85.702,179.511 85.310 C 178.778 84.918,178.179 84.472,178.179 84.318 C 178.179 84.165,177.930 84.040,177.626 84.040 C 177.322 84.040,176.986 83.811,176.879 83.531 C 176.771 83.252,176.290 82.924,175.808 82.803 C 175.326 82.682,174.932 82.424,174.932 82.229 C 174.932 82.035,174.697 81.876,174.409 81.876 C 174.122 81.876,173.756 81.673,173.598 81.425 C 173.260 80.897,172.133 80.141,171.235 79.839 C 170.888 79.723,170.604 79.495,170.604 79.333 C 170.604 79.171,170.239 78.925,169.793 78.785 C 169.346 78.646,168.900 78.432,168.801 78.310 C 168.413 77.833,166.285 76.465,165.930 76.465 C 165.723 76.465,165.555 76.306,165.555 76.111 C 165.555 75.917,165.161 75.659,164.679 75.538 C 164.197 75.417,163.716 75.089,163.608 74.810 C 163.501 74.530,163.165 74.301,162.861 74.301 C 162.557 74.301,162.308 74.142,162.308 73.947 C 162.308 73.753,161.914 73.495,161.433 73.374 C 160.951 73.253,160.475 72.941,160.375 72.680 C 160.275 72.420,159.371 71.744,158.366 71.180 C 157.361 70.615,156.538 70.032,156.538 69.883 C 156.538 69.734,156.289 69.612,155.985 69.612 C 155.681 69.612,155.345 69.383,155.238 69.104 C 155.130 68.824,154.648 68.496,154.167 68.376 C 153.685 68.255,153.291 67.997,153.291 67.802 C 153.291 67.607,153.043 67.448,152.739 67.448 C 152.435 67.448,152.099 67.219,151.991 66.940 C 151.884 66.660,151.402 66.332,150.921 66.211 C 150.439 66.091,150.045 65.832,150.045 65.638 C 150.045 65.443,149.802 65.284,149.504 65.284 C 149.206 65.284,148.963 65.133,148.963 64.948 C 148.963 64.763,148.610 64.499,148.179 64.363 C 147.748 64.226,147.221 63.968,147.007 63.790 C 145.219 62.302,144.825 62.038,144.399 62.038 C 144.132 62.038,143.913 61.872,143.913 61.668 C 143.913 61.465,143.548 61.141,143.102 60.948 C 142.120 60.523,141.051 59.852,140.386 59.243 C 140.116 58.995,139.680 58.792,139.418 58.792 C 139.156 58.792,138.854 58.564,138.747 58.285 C 138.640 58.007,137.730 57.317,136.725 56.752 C 135.719 56.188,134.897 55.604,134.897 55.455 C 134.896 55.307,134.648 55.185,134.344 55.185 C 134.040 55.185,133.704 54.956,133.596 54.676 C 133.489 54.397,133.007 54.069,132.526 53.948 C 132.044 53.827,131.650 53.569,131.650 53.375 C 131.650 53.180,131.415 53.021,131.127 53.021 C 130.839 53.021,130.474 52.818,130.315 52.570 C 129.978 52.042,128.851 51.286,127.953 50.984 C 127.606 50.868,127.322 50.640,127.322 50.478 C 127.322 50.316,126.969 50.072,126.538 49.935 C 126.107 49.798,125.579 49.541,125.366 49.363 C 123.578 47.875,123.184 47.610,122.758 47.610 C 122.491 47.610,122.272 47.444,122.272 47.241 C 122.272 47.038,121.907 46.713,121.461 46.520 C 120.479 46.096,119.410 45.424,118.745 44.815 C 118.475 44.567,118.039 44.364,117.777 44.364 C 117.514 44.364,117.212 44.136,117.106 43.858 C 116.999 43.579,116.089 42.890,115.084 42.325 C 114.078 41.760,113.256 41.177,113.256 41.028 C 113.255 40.879,113.007 40.757,112.703 40.757 C 112.399 40.757,112.063 40.529,111.955 40.249 C 111.848 39.969,111.366 39.642,110.885 39.521 C 110.403 39.400,110.009 39.142,110.009 38.947 C 110.009 38.753,109.774 38.593,109.486 38.593 C 109.198 38.593,108.833 38.390,108.674 38.142 C 108.384 37.689,107.405 36.997,106.402 36.537 C 106.105 36.401,105.647 36.077,105.385 35.818 C 105.122 35.559,104.693 35.347,104.431 35.347 C 104.169 35.347,103.861 35.104,103.747 34.806 C 103.633 34.509,103.291 34.265,102.987 34.265 C 102.683 34.265,102.435 34.106,102.435 33.911 C 102.435 33.717,102.029 33.456,101.533 33.331 C 101.037 33.207,100.631 32.956,100.631 32.774 C 100.631 32.593,100.266 32.286,99.820 32.093 C 98.838 31.668,97.769 30.997,97.104 30.388 C 96.833 30.140,96.469 29.937,96.294 29.937 C 96.118 29.937,95.577 29.572,95.091 29.125 C 93.677 27.826,93.230 27.516,92.398 27.252 C 91.967 27.115,91.614 26.851,91.614 26.666 C 91.614 26.481,91.366 26.330,91.062 26.330 C 90.758 26.330,90.422 26.101,90.314 25.822 C 90.207 25.542,89.725 25.214,89.244 25.093 C 88.762 24.972,88.368 24.714,88.368 24.520 C 88.368 24.325,88.133 24.166,87.845 24.166 C 87.557 24.166,87.192 23.963,87.033 23.715 C 86.743 23.261,85.764 22.570,84.761 22.110 C 84.463 21.973,84.006 21.650,83.743 21.391 C 83.481 21.132,83.052 20.920,82.790 20.920 C 82.528 20.920,82.220 20.676,82.106 20.379 C 81.872 19.771,79.939 19.620,80.141 20.225 M379.802 179.982 L 379.802 340.126 349.865 340.126 L 319.929 340.126 319.838 220.469 C 319.741 91.586,319.859 99.467,318.053 101.463 C 317.717 101.836,317.287 102.045,317.099 101.929 C 316.911 101.813,316.663 101.962,316.548 102.262 C 316.433 102.561,315.930 102.962,315.429 103.152 C 314.928 103.343,314.518 103.665,314.518 103.868 C 314.518 104.072,314.210 104.238,313.835 104.238 C 313.459 104.238,313.059 104.482,312.944 104.779 C 312.830 105.077,312.552 105.320,312.327 105.320 C 312.101 105.320,311.301 105.807,310.550 106.402 C 309.799 106.997,309.004 107.484,308.785 107.484 C 308.565 107.484,308.386 107.631,308.386 107.810 C 308.386 107.989,307.940 108.300,307.394 108.501 C 306.849 108.702,305.931 109.286,305.354 109.799 C 304.778 110.311,304.088 110.730,303.821 110.730 C 303.555 110.730,303.336 110.890,303.336 111.084 C 303.336 111.279,302.942 111.537,302.461 111.658 C 301.979 111.779,301.497 112.106,301.390 112.386 C 301.283 112.666,300.946 112.894,300.643 112.894 C 300.339 112.894,300.090 113.046,300.090 113.231 C 300.090 113.416,299.734 113.680,299.299 113.818 C 298.863 113.957,298.220 114.414,297.868 114.835 C 297.516 115.255,297.223 115.453,297.217 115.274 C 297.210 115.095,296.918 115.257,296.568 115.635 C 295.853 116.407,294.889 117.056,293.688 117.575 C 293.242 117.768,292.876 118.093,292.876 118.296 C 292.876 118.499,292.569 118.665,292.194 118.665 C 291.818 118.665,291.417 118.909,291.303 119.206 C 291.189 119.504,290.911 119.748,290.685 119.748 C 290.460 119.748,289.660 120.234,288.909 120.830 C 288.158 121.425,287.363 121.912,287.144 121.912 C 286.924 121.912,286.745 122.063,286.745 122.248 C 286.745 122.433,286.380 122.698,285.933 122.838 C 285.487 122.977,285.041 123.191,284.941 123.313 C 284.554 123.790,282.425 125.158,282.071 125.158 C 281.864 125.158,281.695 125.317,281.695 125.512 C 281.695 125.706,281.301 125.964,280.820 126.085 C 280.338 126.206,279.856 126.534,279.749 126.813 C 279.642 127.093,279.305 127.322,279.001 127.322 C 278.698 127.322,278.449 127.473,278.449 127.658 C 278.449 127.843,278.093 128.108,277.658 128.246 C 277.222 128.384,276.579 128.841,276.227 129.262 C 275.875 129.683,275.582 129.880,275.576 129.701 C 275.569 129.522,275.277 129.685,274.927 130.062 C 274.212 130.834,273.247 131.484,272.047 132.003 C 271.601 132.196,271.235 132.520,271.235 132.723 C 271.235 132.927,270.928 133.093,270.553 133.093 C 270.177 133.093,269.776 133.336,269.662 133.634 C 269.548 133.931,269.281 134.175,269.068 134.175 C 268.632 134.175,266.431 135.652,266.246 136.069 C 266.180 136.217,265.896 136.339,265.615 136.339 C 265.334 136.339,265.104 136.498,265.104 136.693 C 265.104 136.887,264.698 137.149,264.202 137.273 C 263.706 137.397,263.300 137.648,263.300 137.830 C 263.300 138.012,262.935 138.318,262.489 138.511 C 261.507 138.936,260.438 139.607,259.773 140.216 C 259.503 140.464,259.067 140.667,258.805 140.667 C 258.542 140.667,258.234 140.911,258.120 141.208 C 258.006 141.506,257.664 141.749,257.360 141.749 C 257.056 141.749,256.808 141.901,256.808 142.086 C 256.808 142.271,256.452 142.535,256.017 142.673 C 255.581 142.811,254.937 143.269,254.586 143.689 C 254.234 144.110,253.941 144.308,253.934 144.129 C 253.928 143.950,253.638 144.129,253.291 144.528 C 252.944 144.927,252.295 145.368,251.849 145.509 C 251.402 145.650,251.037 145.917,251.037 146.102 C 251.037 146.287,250.788 146.438,250.485 146.438 C 250.181 146.438,249.845 146.666,249.738 146.944 C 249.632 147.222,249.272 147.544,248.938 147.661 C 248.605 147.777,247.845 148.197,247.250 148.594 C 246.655 148.991,245.803 149.506,245.356 149.738 C 244.910 149.971,244.545 150.297,244.545 150.464 C 244.545 150.630,244.301 150.766,244.004 150.766 C 243.706 150.766,243.463 150.913,243.463 151.092 C 243.463 151.271,242.976 151.587,242.381 151.794 C 241.785 152.002,241.298 152.323,241.298 152.509 C 241.298 152.695,241.014 152.942,240.667 153.058 C 239.945 153.301,238.850 153.986,238.132 154.644 C 237.861 154.892,237.426 155.095,237.163 155.095 C 236.901 155.095,236.593 155.338,236.479 155.636 C 236.365 155.933,236.023 156.177,235.719 156.177 C 235.415 156.177,235.167 156.328,235.167 156.513 C 235.167 156.698,234.811 156.963,234.375 157.101 C 233.940 157.239,233.296 157.696,232.945 158.117 C 232.593 158.538,232.300 158.735,232.293 158.556 C 232.287 158.377,231.997 158.557,231.650 158.955 C 231.303 159.354,230.654 159.796,230.207 159.937 C 229.761 160.078,229.396 160.344,229.396 160.529 C 229.396 160.714,229.160 160.866,228.873 160.866 C 228.585 160.866,228.220 161.081,228.061 161.344 C 227.903 161.607,227.529 161.933,227.232 162.069 C 226.934 162.205,226.204 162.637,225.609 163.030 C 225.014 163.422,224.161 163.934,223.715 164.166 C 223.269 164.398,222.904 164.725,222.904 164.891 C 222.904 165.058,222.660 165.194,222.362 165.194 C 222.065 165.194,221.821 165.340,221.821 165.519 C 221.821 165.698,221.335 166.014,220.739 166.222 C 220.144 166.429,219.657 166.751,219.657 166.936 C 219.657 167.122,219.373 167.369,219.026 167.486 C 218.304 167.728,217.209 168.413,216.491 169.071 C 216.220 169.319,215.784 169.522,215.522 169.522 C 215.260 169.522,214.952 169.766,214.838 170.063 C 214.724 170.361,214.382 170.604,214.078 170.604 C 213.774 170.604,213.526 170.756,213.526 170.941 C 213.526 171.126,213.170 171.390,212.734 171.528 C 212.299 171.666,211.655 172.124,211.304 172.544 C 210.952 172.965,210.659 173.163,210.652 172.984 C 210.646 172.804,210.356 172.984,210.009 173.383 C 209.662 173.782,209.013 174.223,208.566 174.364 C 208.120 174.505,207.755 174.772,207.755 174.957 C 207.755 175.142,207.519 175.293,207.232 175.293 C 206.944 175.293,206.579 175.508,206.420 175.771 C 206.261 176.034,205.888 176.360,205.591 176.496 C 205.293 176.632,204.563 177.065,203.968 177.457 C 203.372 177.850,202.520 178.361,202.074 178.593 C 201.628 178.826,201.262 179.152,201.262 179.318 C 201.262 179.485,201.032 179.621,200.751 179.621 C 200.470 179.621,200.159 179.824,200.059 180.072 C 199.913 180.433,199.871 180.433,199.848 180.072 C 199.832 179.824,199.576 179.621,199.279 179.621 C 198.981 179.621,198.738 179.455,198.738 179.252 C 198.738 179.048,198.372 178.724,197.926 178.531 C 196.713 178.007,195.707 177.332,195.383 176.826 C 195.225 176.578,194.778 176.375,194.391 176.375 C 194.005 176.375,193.688 176.209,193.688 176.006 C 193.688 175.802,193.278 175.480,192.777 175.290 C 192.276 175.099,191.772 174.698,191.657 174.399 C 191.542 174.099,191.298 173.947,191.115 174.060 C 190.932 174.173,190.468 173.888,190.083 173.427 C 189.698 172.965,189.378 172.734,189.372 172.914 C 189.365 173.093,189.076 172.913,188.729 172.514 C 188.381 172.116,187.732 171.674,187.286 171.533 C 186.839 171.392,186.474 171.126,186.474 170.941 C 186.474 170.756,186.226 170.604,185.922 170.604 C 185.618 170.604,185.282 170.375,185.174 170.096 C 185.067 169.816,184.585 169.488,184.104 169.367 C 183.622 169.247,183.228 168.988,183.228 168.794 C 183.228 168.599,183.010 168.440,182.743 168.440 C 182.476 168.440,181.787 168.023,181.210 167.513 C 180.634 167.003,179.838 166.435,179.441 166.251 C 178.252 165.700,177.294 165.041,176.988 164.563 C 176.830 164.315,176.465 164.112,176.177 164.112 C 175.889 164.112,175.654 163.953,175.654 163.758 C 175.654 163.563,175.260 163.305,174.778 163.184 C 174.297 163.064,173.815 162.736,173.707 162.456 C 173.600 162.177,173.183 161.948,172.780 161.948 C 172.377 161.948,172.047 161.781,172.047 161.578 C 172.047 161.375,171.637 161.053,171.136 160.862 C 170.635 160.672,170.131 160.271,170.016 159.971 C 169.901 159.672,169.657 159.520,169.474 159.633 C 169.291 159.746,168.827 159.461,168.442 159.000 C 168.057 158.538,167.737 158.307,167.731 158.486 C 167.724 158.665,167.435 158.492,167.087 158.100 C 166.740 157.709,166.213 157.277,165.915 157.140 C 165.618 157.002,164.887 156.569,164.292 156.177 C 163.697 155.784,162.845 155.273,162.399 155.041 C 161.952 154.808,161.587 154.482,161.587 154.315 C 161.587 154.149,161.375 154.013,161.116 154.013 C 160.856 154.013,160.120 153.578,159.478 153.047 C 158.253 152.032,157.254 151.401,155.906 150.791 C 155.460 150.589,155.095 150.257,155.095 150.054 C 155.095 149.851,154.851 149.684,154.554 149.684 C 154.256 149.684,154.013 149.525,154.013 149.331 C 154.013 149.136,153.619 148.878,153.137 148.757 C 152.655 148.636,152.174 148.308,152.066 148.029 C 151.959 147.749,151.541 147.520,151.138 147.520 C 150.735 147.520,150.406 147.354,150.406 147.151 C 150.406 146.947,149.996 146.625,149.495 146.435 C 148.994 146.244,148.490 145.843,148.375 145.544 C 148.260 145.245,148.016 145.092,147.833 145.205 C 147.650 145.319,147.185 145.034,146.801 144.572 C 146.416 144.111,146.096 143.880,146.090 144.059 C 146.083 144.238,145.794 144.064,145.446 143.673 C 145.099 143.282,144.572 142.849,144.274 142.712 C 143.977 142.575,143.246 142.142,142.651 141.749 C 142.056 141.357,141.204 140.846,140.757 140.613 C 140.311 140.381,139.946 140.055,139.946 139.888 C 139.946 139.721,139.727 139.585,139.460 139.585 C 139.193 139.585,138.584 139.264,138.107 138.871 C 136.537 137.576,135.440 136.855,134.265 136.347 C 133.819 136.154,133.454 135.849,133.454 135.669 C 133.454 135.489,133.170 135.246,132.822 135.129 C 132.100 134.887,131.005 134.202,130.287 133.544 C 130.017 133.296,129.581 133.093,129.319 133.093 C 129.056 133.093,128.748 132.849,128.634 132.552 C 128.520 132.254,128.178 132.011,127.874 132.011 C 127.570 132.011,127.322 131.852,127.322 131.657 C 127.322 131.462,126.916 131.201,126.420 131.077 C 125.924 130.952,125.518 130.701,125.518 130.518 C 125.518 130.335,125.234 130.079,124.887 129.951 C 124.540 129.822,124.013 129.450,123.715 129.125 C 123.417 128.800,122.931 128.422,122.633 128.285 C 122.335 128.148,121.605 127.714,121.010 127.322 C 120.415 126.929,119.563 126.418,119.116 126.186 C 118.670 125.953,118.305 125.645,118.305 125.500 C 118.305 125.355,117.899 125.134,117.403 125.010 C 116.907 124.885,116.501 124.624,116.501 124.430 C 116.501 124.235,116.266 124.076,115.978 124.076 C 115.691 124.076,115.325 123.873,115.167 123.625 C 114.843 123.119,113.837 122.444,112.624 121.920 C 112.178 121.727,111.812 121.421,111.812 121.241 C 111.812 121.061,111.528 120.818,111.181 120.702 C 110.459 120.459,109.364 119.774,108.646 119.116 C 108.375 118.868,107.922 118.665,107.639 118.665 C 107.355 118.665,107.124 118.499,107.124 118.296 C 107.124 118.093,106.758 117.768,106.312 117.575 C 105.099 117.051,104.093 116.376,103.769 115.870 C 103.611 115.622,103.305 115.419,103.090 115.419 C 102.875 115.419,102.437 115.124,102.116 114.763 C 101.795 114.402,101.289 113.995,100.992 113.857 C 100.694 113.720,99.964 113.287,99.369 112.894 C 98.774 112.502,97.922 111.991,97.475 111.758 C 97.029 111.526,96.664 111.200,96.664 111.033 C 96.664 110.867,96.415 110.730,96.111 110.730 C 95.808 110.730,95.466 110.487,95.351 110.189 C 95.237 109.892,94.836 109.648,94.461 109.648 C 94.085 109.648,93.778 109.495,93.778 109.307 C 93.778 108.982,92.736 108.312,90.983 107.512 C 90.537 107.308,90.171 106.994,90.171 106.814 C 90.171 106.634,89.887 106.391,89.540 106.274 C 88.818 106.032,87.723 105.347,87.005 104.689 C 86.734 104.441,86.281 104.238,85.998 104.238 C 85.714 104.238,85.482 104.072,85.482 103.868 C 85.482 103.665,85.072 103.343,84.571 103.152 C 84.070 102.962,83.567 102.561,83.452 102.262 C 83.337 101.962,83.087 101.814,82.896 101.932 C 82.705 102.050,82.357 101.898,82.122 101.594 C 81.887 101.290,81.412 100.990,81.066 100.927 C 80.469 100.817,80.433 106.894,80.345 220.379 L 80.252 339.946 50.045 340.038 C 30.325 340.098,19.838 340.255,19.838 340.489 C 19.838 341.050,80.160 340.976,80.721 340.415 C 81.056 340.080,81.157 312.994,81.165 220.757 C 81.173 139.593,81.293 101.734,81.544 102.164 C 81.746 102.511,82.147 102.795,82.435 102.795 C 82.722 102.795,82.958 102.955,82.958 103.149 C 82.958 103.344,83.363 103.605,83.859 103.729 C 84.355 103.854,84.761 104.104,84.761 104.286 C 84.761 104.468,85.126 104.774,85.573 104.967 C 86.773 105.487,87.737 106.136,88.453 106.908 C 88.803 107.286,89.095 107.448,89.101 107.269 C 89.108 107.090,89.401 107.287,89.753 107.708 C 90.104 108.129,90.748 108.586,91.183 108.724 C 91.619 108.863,91.975 109.127,91.975 109.312 C 91.975 109.497,92.223 109.648,92.527 109.648 C 92.831 109.648,93.173 109.892,93.287 110.189 C 93.401 110.487,93.807 110.730,94.189 110.730 C 94.571 110.730,94.971 110.959,95.078 111.239 C 95.185 111.519,95.667 111.846,96.149 111.967 C 96.630 112.088,97.024 112.346,97.024 112.541 C 97.024 112.735,97.268 112.894,97.565 112.894 C 97.863 112.894,98.106 113.061,98.106 113.264 C 98.106 113.467,98.472 113.792,98.918 113.985 C 99.900 114.409,100.969 115.080,101.634 115.690 C 101.904 115.938,102.340 116.141,102.602 116.141 C 102.864 116.141,103.172 116.384,103.286 116.682 C 103.401 116.979,103.743 117.223,104.046 117.223 C 104.350 117.223,104.599 117.382,104.599 117.577 C 104.599 117.771,105.005 118.032,105.500 118.157 C 105.996 118.281,106.402 118.532,106.402 118.713 C 106.402 118.895,106.767 119.202,107.214 119.395 C 108.474 119.940,110.199 121.128,111.470 122.327 C 111.818 122.654,112.443 123.031,112.859 123.163 C 113.275 123.295,113.616 123.554,113.616 123.739 C 113.616 123.924,113.864 124.076,114.168 124.076 C 114.472 124.076,114.814 124.319,114.928 124.617 C 115.042 124.914,115.350 125.158,115.612 125.158 C 115.875 125.158,116.310 125.361,116.581 125.609 C 117.299 126.267,118.394 126.952,119.116 127.194 C 119.463 127.311,119.748 127.558,119.748 127.743 C 119.748 127.929,120.234 128.251,120.830 128.458 C 121.425 128.665,121.912 128.982,121.912 129.161 C 121.912 129.340,122.155 129.486,122.453 129.486 C 122.750 129.486,122.994 129.645,122.994 129.840 C 122.994 130.034,123.388 130.293,123.869 130.413 C 124.351 130.534,124.833 130.862,124.940 131.142 C 125.047 131.421,125.384 131.650,125.688 131.650 C 125.991 131.650,126.240 131.809,126.240 132.004 C 126.240 132.199,126.646 132.460,127.142 132.584 C 127.638 132.709,128.043 132.959,128.043 133.141 C 128.043 133.323,128.408 133.629,128.855 133.822 C 130.115 134.367,131.840 135.556,133.111 136.754 C 133.459 137.082,134.084 137.458,134.500 137.590 C 134.916 137.722,135.257 137.982,135.257 138.167 C 135.257 138.352,135.506 138.503,135.809 138.503 C 136.113 138.503,136.455 138.747,136.569 139.044 C 136.683 139.342,136.991 139.585,137.254 139.585 C 137.516 139.585,137.952 139.788,138.222 140.036 C 138.940 140.694,140.035 141.379,140.757 141.622 C 141.105 141.738,141.389 141.981,141.389 142.161 C 141.389 142.341,141.754 142.646,142.200 142.839 C 143.035 143.201,144.316 143.955,144.635 144.274 C 145.178 144.817,147.184 146.078,147.506 146.078 C 147.712 146.078,147.881 146.237,147.881 146.431 C 147.881 146.626,148.287 146.887,148.783 147.011 C 149.279 147.136,149.684 147.387,149.684 147.568 C 149.684 147.750,150.050 148.057,150.496 148.250 C 151.759 148.796,152.695 149.446,153.220 150.141 C 153.485 150.492,153.841 150.692,154.013 150.586 C 154.184 150.480,154.538 150.698,154.799 151.069 C 155.061 151.441,155.640 151.860,156.087 152.001 C 156.533 152.142,156.898 152.409,156.898 152.594 C 156.898 152.779,157.147 152.931,157.450 152.931 C 157.754 152.931,158.096 153.174,158.210 153.472 C 158.325 153.769,158.717 154.013,159.083 154.013 C 159.449 154.013,159.878 154.216,160.036 154.463 C 160.374 154.991,161.501 155.747,162.399 156.049 C 162.746 156.165,163.030 156.395,163.030 156.560 C 163.030 156.861,164.477 157.766,165.645 158.194 C 165.992 158.321,166.276 158.572,166.276 158.753 C 166.276 158.933,166.641 159.238,167.087 159.431 C 168.069 159.855,169.138 160.527,169.803 161.136 C 170.074 161.384,170.527 161.587,170.810 161.587 C 171.094 161.587,171.326 161.753,171.326 161.957 C 171.326 162.160,171.691 162.484,172.137 162.677 C 173.347 163.200,174.281 163.846,174.993 164.653 C 175.343 165.050,175.635 165.238,175.642 165.072 C 175.648 164.905,176.181 165.192,176.826 165.708 C 177.471 166.225,178.161 166.775,178.359 166.931 C 178.557 167.087,179.004 167.322,179.351 167.455 C 179.698 167.588,179.982 167.863,179.982 168.068 C 179.982 168.273,180.214 168.440,180.497 168.440 C 180.781 168.440,181.234 168.643,181.504 168.891 C 182.222 169.549,183.317 170.234,184.040 170.476 C 184.387 170.593,184.671 170.823,184.671 170.987 C 184.671 171.289,186.118 172.193,187.286 172.621 C 187.633 172.748,187.917 173.000,187.917 173.180 C 187.917 173.360,188.282 173.665,188.729 173.858 C 189.710 174.283,190.780 174.954,191.444 175.564 C 191.715 175.812,192.168 176.014,192.451 176.014 C 192.735 176.014,192.967 176.181,192.967 176.384 C 192.967 176.587,193.332 176.912,193.778 177.105 C 195.042 177.651,195.978 178.301,196.503 178.996 C 196.767 179.347,197.135 179.540,197.320 179.426 C 197.504 179.311,197.656 179.364,197.656 179.543 C 197.656 179.722,198.199 180.161,198.863 180.519 C 200.102 181.186,202.344 180.519,202.344 179.483 C 202.344 179.295,202.450 179.246,202.578 179.374 C 202.707 179.503,203.072 179.310,203.390 178.945 C 203.708 178.580,204.333 178.166,204.779 178.025 C 205.225 177.885,205.591 177.618,205.591 177.433 C 205.591 177.248,205.826 177.096,206.114 177.096 C 206.401 177.096,206.767 176.894,206.925 176.646 C 207.249 176.139,208.255 175.465,209.468 174.940 C 209.914 174.747,210.280 174.441,210.280 174.259 C 210.280 174.077,210.685 173.827,211.181 173.702 C 211.677 173.578,212.083 173.317,212.083 173.122 C 212.083 172.927,212.326 172.768,212.624 172.768 C 212.922 172.768,213.165 172.622,213.165 172.443 C 213.165 172.264,213.652 171.948,214.247 171.740 C 214.842 171.533,215.329 171.211,215.329 171.026 C 215.329 170.840,215.613 170.593,215.960 170.476 C 216.858 170.175,217.985 169.419,218.323 168.891 C 218.481 168.643,218.910 168.440,219.276 168.440 C 219.642 168.440,220.034 168.197,220.148 167.899 C 220.263 167.601,220.530 167.358,220.743 167.358 C 220.956 167.358,221.327 167.198,221.566 167.003 C 223.688 165.272,224.346 164.807,224.346 165.037 C 224.346 165.184,224.630 164.978,224.977 164.579 C 225.325 164.181,225.974 163.739,226.420 163.598 C 226.867 163.457,227.232 163.190,227.232 163.005 C 227.232 162.820,227.467 162.669,227.755 162.669 C 228.043 162.669,228.408 162.466,228.566 162.218 C 228.890 161.712,229.896 161.038,231.109 160.513 C 231.555 160.320,231.921 159.996,231.921 159.793 C 231.921 159.589,232.153 159.423,232.436 159.423 C 232.719 159.423,233.173 159.220,233.443 158.972 C 234.108 158.363,235.177 157.691,236.159 157.267 C 236.605 157.074,236.970 156.769,236.970 156.588 C 236.970 156.408,237.254 156.165,237.601 156.049 C 238.324 155.806,239.419 155.122,240.137 154.463 C 240.407 154.216,240.843 154.013,241.105 154.013 C 241.367 154.013,241.675 153.769,241.790 153.472 C 241.904 153.174,242.246 152.931,242.550 152.931 C 242.853 152.931,243.102 152.779,243.102 152.594 C 243.102 152.409,243.458 152.145,243.893 152.007 C 244.329 151.868,244.972 151.411,245.324 150.990 C 245.676 150.570,245.969 150.372,245.975 150.551 C 245.982 150.730,246.271 150.551,246.619 150.152 C 246.966 149.753,247.615 149.312,248.061 149.171 C 248.508 149.030,248.873 148.763,248.873 148.578 C 248.873 148.393,249.108 148.242,249.396 148.242 C 249.684 148.242,250.049 148.039,250.208 147.791 C 250.531 147.285,251.537 146.610,252.750 146.086 C 253.197 145.893,253.562 145.568,253.562 145.365 C 253.562 145.162,253.878 144.995,254.265 144.995 C 254.652 144.995,255.098 144.793,255.257 144.545 C 255.581 144.038,256.587 143.364,257.800 142.839 C 258.246 142.646,258.611 142.341,258.611 142.161 C 258.611 141.981,258.895 141.738,259.243 141.622 C 260.141 141.320,261.267 140.564,261.605 140.036 C 261.764 139.788,262.193 139.585,262.558 139.585 C 262.924 139.585,263.317 139.342,263.431 139.044 C 263.545 138.747,263.887 138.503,264.191 138.503 C 264.494 138.503,264.743 138.352,264.743 138.167 C 264.743 137.982,265.084 137.722,265.500 137.590 C 265.916 137.458,266.566 137.082,266.943 136.754 C 267.320 136.427,267.937 135.891,268.314 135.563 C 268.691 135.236,269.341 134.859,269.757 134.727 C 270.173 134.595,270.514 134.336,270.514 134.151 C 270.514 133.966,270.763 133.814,271.066 133.814 C 271.370 133.814,271.712 133.571,271.826 133.273 C 271.940 132.976,272.248 132.732,272.511 132.732 C 272.773 132.732,273.209 132.529,273.479 132.281 C 274.144 131.672,275.213 131.001,276.195 130.576 C 276.641 130.383,277.006 130.078,277.006 129.898 C 277.006 129.718,277.290 129.466,277.638 129.339 C 278.805 128.911,280.252 128.006,280.252 127.705 C 280.252 127.541,280.537 127.311,280.884 127.194 C 281.782 126.893,282.908 126.136,283.246 125.609 C 283.405 125.361,283.834 125.158,284.199 125.158 C 284.565 125.158,284.958 124.914,285.072 124.617 C 285.186 124.319,285.528 124.076,285.832 124.076 C 286.136 124.076,286.384 123.924,286.384 123.739 C 286.384 123.554,286.725 123.295,287.141 123.163 C 287.557 123.031,288.207 122.654,288.584 122.327 C 288.961 121.999,289.578 121.463,289.955 121.136 C 290.333 120.808,290.982 120.432,291.398 120.300 C 291.814 120.168,292.155 119.908,292.155 119.723 C 292.155 119.538,292.404 119.387,292.707 119.387 C 293.011 119.387,293.353 119.143,293.467 118.846 C 293.582 118.548,293.890 118.305,294.152 118.305 C 294.414 118.305,294.850 118.102,295.120 117.854 C 295.785 117.245,296.854 116.573,297.836 116.149 C 298.282 115.956,298.647 115.650,298.647 115.470 C 298.647 115.290,298.931 115.039,299.279 114.911 C 300.446 114.483,301.894 113.579,301.894 113.278 C 301.894 113.113,302.178 112.883,302.525 112.767 C 303.247 112.524,304.342 111.839,305.060 111.181 C 305.331 110.933,305.766 110.730,306.029 110.730 C 306.291 110.730,306.599 110.487,306.713 110.189 C 306.827 109.892,307.169 109.648,307.473 109.648 C 307.777 109.648,308.025 109.497,308.025 109.312 C 308.025 109.127,308.390 108.860,308.837 108.719 C 309.283 108.578,309.862 108.159,310.124 107.787 C 310.385 107.416,310.740 107.198,310.911 107.304 C 311.082 107.410,311.436 107.192,311.698 106.821 C 311.959 106.449,312.538 106.030,312.985 105.889 C 313.431 105.748,313.796 105.481,313.796 105.296 C 313.796 105.111,314.045 104.959,314.349 104.959 C 314.652 104.959,314.994 104.716,315.109 104.418 C 315.223 104.121,315.531 103.877,315.793 103.877 C 316.055 103.877,316.490 103.674,316.760 103.427 C 317.030 103.179,317.610 102.771,318.048 102.522 L 318.846 102.068 318.846 220.887 C 318.846 286.238,318.944 339.963,319.065 340.277 C 319.288 340.860,378.820 341.202,380.313 340.629 C 381.164 340.302,381.193 19.838,380.343 19.838 C 379.863 19.838,379.802 37.872,379.802 179.982 M120.108 179.961 C 120.108 180.148,120.920 180.757,121.911 181.314 C 122.903 181.871,123.714 182.448,123.715 182.597 C 123.715 182.746,123.884 182.867,124.090 182.867 C 124.517 182.867,126.719 184.350,126.901 184.761 C 126.967 184.910,127.256 185.032,127.544 185.032 C 127.831 185.032,128.159 185.275,128.274 185.573 C 128.388 185.870,128.771 186.114,129.125 186.114 C 129.480 186.114,129.863 186.357,129.977 186.655 C 130.091 186.952,130.433 187.196,130.737 187.196 C 131.041 187.196,131.289 187.368,131.289 187.578 C 131.289 187.788,131.452 187.859,131.650 187.737 C 131.849 187.614,132.011 187.686,132.011 187.896 C 132.011 188.106,132.237 188.278,132.513 188.278 C 132.790 188.278,133.109 188.521,133.223 188.819 C 133.337 189.116,133.679 189.360,133.983 189.360 C 134.287 189.360,134.536 189.519,134.536 189.714 C 134.536 189.908,134.941 190.169,135.437 190.294 C 135.933 190.418,136.339 190.669,136.339 190.851 C 136.339 191.032,136.704 191.339,137.151 191.532 C 138.321 192.038,139.310 192.695,139.977 193.411 C 140.298 193.754,140.669 193.927,140.802 193.793 C 140.936 193.660,141.293 193.907,141.598 194.341 C 141.902 194.775,142.314 195.131,142.513 195.131 C 142.815 195.131,145.194 196.763,146.646 197.967 C 146.860 198.144,147.387 198.401,147.819 198.537 C 148.250 198.674,148.602 198.938,148.602 199.123 C 148.602 199.308,148.828 199.459,149.105 199.459 C 149.381 199.459,149.701 199.702,149.815 200.000 C 149.929 200.298,150.335 200.541,150.717 200.541 C 151.098 200.541,151.504 200.784,151.618 201.082 C 151.732 201.380,152.074 201.623,152.378 201.623 C 152.682 201.623,152.931 201.782,152.931 201.977 C 152.931 202.171,153.325 202.430,153.806 202.550 C 154.288 202.671,154.770 202.999,154.877 203.279 C 154.984 203.558,155.321 203.787,155.624 203.787 C 155.928 203.787,156.177 203.939,156.177 204.124 C 156.177 204.309,156.542 204.574,156.988 204.713 C 157.435 204.853,157.881 205.066,157.980 205.188 C 158.322 205.610,160.477 207.033,160.771 207.033 C 160.934 207.033,161.295 207.349,161.573 207.735 C 161.851 208.122,162.225 208.347,162.403 208.237 C 162.581 208.127,162.966 208.379,163.259 208.798 C 163.552 209.216,163.955 209.558,164.154 209.558 C 164.456 209.558,166.835 211.191,168.287 212.394 C 168.501 212.571,169.029 212.828,169.460 212.965 C 169.891 213.102,170.243 213.365,170.243 213.550 C 170.243 213.735,170.470 213.886,170.746 213.886 C 171.022 213.886,171.342 214.130,171.456 214.427 C 171.570 214.725,171.976 214.968,172.358 214.968 C 172.739 214.968,173.145 215.212,173.259 215.509 C 173.374 215.807,173.716 216.050,174.019 216.050 C 174.323 216.050,174.572 216.210,174.572 216.404 C 174.572 216.599,174.966 216.857,175.447 216.978 C 175.929 217.099,176.411 217.426,176.518 217.706 C 176.625 217.986,176.962 218.215,177.266 218.215 C 177.569 218.215,177.818 218.366,177.818 218.551 C 177.818 218.736,178.175 219.001,178.613 219.140 C 179.050 219.278,179.629 219.614,179.901 219.885 C 180.172 220.157,180.609 220.379,180.871 220.379 C 181.133 220.379,181.441 220.622,181.555 220.920 C 181.669 221.217,181.975 221.461,182.235 221.461 C 182.495 221.461,182.936 221.777,183.214 222.163 C 183.493 222.549,183.866 222.775,184.044 222.665 C 184.222 222.555,184.608 222.807,184.900 223.225 C 185.193 223.643,185.596 223.986,185.795 223.986 C 186.097 223.986,188.476 225.618,189.929 226.822 C 190.142 226.999,190.670 227.255,191.101 227.392 C 191.532 227.529,191.885 227.792,191.885 227.977 C 191.885 228.162,192.111 228.314,192.387 228.314 C 192.663 228.314,192.983 228.557,193.097 228.855 C 193.211 229.152,193.617 229.396,193.999 229.396 C 194.381 229.396,194.786 229.639,194.900 229.937 C 195.015 230.234,195.357 230.478,195.660 230.478 C 195.964 230.478,196.213 230.637,196.213 230.832 C 196.213 231.026,196.607 231.284,197.088 231.405 C 197.570 231.526,198.052 231.854,198.159 232.134 C 198.266 232.413,198.603 232.642,198.907 232.642 C 199.210 232.642,199.459 232.801,199.459 232.996 C 199.459 233.190,199.853 233.449,200.335 233.569 C 200.816 233.690,201.298 234.018,201.405 234.298 C 201.513 234.577,201.940 234.806,202.354 234.806 C 202.769 234.806,203.015 234.957,202.902 235.141 C 202.788 235.325,203.062 235.590,203.511 235.730 C 203.961 235.871,204.409 236.086,204.509 236.209 C 204.829 236.608,207.339 238.413,207.572 238.413 C 207.767 238.413,210.412 240.289,211.570 241.249 C 211.783 241.426,212.311 241.683,212.742 241.820 C 213.173 241.956,213.526 242.220,213.526 242.405 C 213.526 242.590,213.769 242.741,214.067 242.741 C 214.364 242.741,214.608 242.908,214.608 243.111 C 214.608 243.314,214.973 243.638,215.419 243.831 C 216.401 244.256,217.470 244.927,218.135 245.537 C 218.405 245.784,218.841 245.987,219.103 245.987 C 219.366 245.987,219.674 246.231,219.788 246.528 C 219.902 246.826,220.244 247.069,220.548 247.069 C 220.852 247.069,221.100 247.229,221.100 247.423 C 221.100 247.618,221.494 247.876,221.976 247.997 C 222.457 248.118,222.939 248.445,223.046 248.725 C 223.154 249.005,223.581 249.234,223.996 249.234 C 224.410 249.234,224.656 249.384,224.543 249.568 C 224.429 249.752,224.703 250.018,225.153 250.158 C 225.602 250.298,226.050 250.514,226.150 250.637 C 226.471 251.035,228.980 252.840,229.213 252.840 C 229.408 252.840,232.053 254.717,233.211 255.676 C 233.424 255.853,233.952 256.110,234.383 256.247 C 234.814 256.384,235.167 256.647,235.167 256.832 C 235.167 257.017,235.397 257.169,235.678 257.169 C 235.959 257.169,236.243 257.290,236.309 257.439 C 236.530 257.935,238.737 259.333,239.300 259.333 C 239.796 259.333,239.856 256.172,239.856 229.966 C 239.856 199.615,239.861 199.459,240.946 199.459 C 241.305 199.459,241.653 199.337,241.719 199.188 C 241.813 198.978,251.342 194.065,252.119 193.827 C 253.507 193.401,253.922 193.189,253.922 192.903 C 253.922 192.716,254.085 192.664,254.283 192.786 C 254.482 192.909,254.644 192.837,254.644 192.627 C 254.644 192.417,254.955 192.245,255.335 192.245 C 255.715 192.245,256.081 192.124,256.147 191.975 C 256.286 191.660,266.112 186.732,266.264 186.900 C 266.320 186.962,266.871 186.653,267.489 186.213 C 268.106 185.773,268.715 185.517,268.841 185.643 C 268.968 185.770,269.071 185.684,269.071 185.452 C 269.071 185.221,269.382 185.032,269.763 185.032 C 270.143 185.032,270.508 184.910,270.574 184.761 C 270.640 184.612,272.601 183.548,274.932 182.396 C 278.891 180.440,279.971 179.621,278.595 179.621 C 278.020 179.621,275.908 180.668,275.560 181.126 C 275.459 181.259,274.931 181.479,274.388 181.616 C 273.844 181.752,273.399 182.026,273.399 182.224 C 273.399 182.422,273.156 182.491,272.858 182.376 C 272.561 182.262,272.317 182.326,272.317 182.518 C 272.317 182.710,272.074 182.867,271.776 182.867 C 271.479 182.867,271.235 183.017,271.235 183.199 C 271.235 183.382,270.708 183.646,270.063 183.786 C 269.418 183.926,268.810 184.141,268.711 184.265 C 268.611 184.389,266.907 185.295,264.923 186.278 C 262.940 187.261,261.234 188.181,261.133 188.323 C 261.031 188.465,260.504 188.693,259.960 188.829 C 259.417 188.966,258.972 189.239,258.972 189.437 C 258.972 189.636,258.729 189.704,258.431 189.590 C 258.133 189.476,257.890 189.540,257.890 189.732 C 257.890 189.924,257.647 190.081,257.349 190.081 C 257.051 190.081,256.808 190.231,256.808 190.413 C 256.808 190.596,256.280 190.860,255.636 191.000 C 254.991 191.139,254.382 191.355,254.283 191.479 C 254.184 191.603,252.480 192.508,250.496 193.491 C 248.512 194.474,246.806 195.395,246.705 195.537 C 246.604 195.679,246.076 195.907,245.533 196.043 C 244.989 196.179,244.545 196.453,244.545 196.651 C 244.545 196.849,244.301 196.918,244.004 196.804 C 243.706 196.690,243.463 196.753,243.463 196.945 C 243.463 197.138,243.219 197.295,242.922 197.295 C 242.624 197.295,242.381 197.444,242.381 197.627 C 242.381 197.810,241.877 198.069,241.262 198.205 C 240.274 198.422,238.774 199.504,238.774 200.000 C 238.774 200.099,238.774 213.153,238.774 229.008 L 238.774 257.835 237.692 257.295 C 237.096 256.998,236.610 256.622,236.610 256.460 C 236.610 256.298,236.204 256.063,235.708 255.938 C 235.212 255.814,234.806 255.553,234.806 255.358 C 234.806 255.164,234.558 255.005,234.254 255.005 C 233.950 255.005,233.608 254.761,233.494 254.463 C 233.380 254.166,232.987 253.922,232.621 253.922 C 232.256 253.922,231.827 253.720,231.668 253.472 C 231.375 253.013,230.374 252.309,229.396 251.873 C 229.098 251.741,228.725 251.417,228.566 251.154 C 228.408 250.891,228.043 250.676,227.755 250.676 C 227.467 250.676,227.232 250.517,227.232 250.322 C 227.232 250.128,226.838 249.870,226.356 249.749 C 225.875 249.628,225.393 249.300,225.285 249.021 C 225.178 248.741,224.778 248.512,224.396 248.512 C 224.014 248.512,223.609 248.269,223.494 247.971 C 223.380 247.674,223.038 247.430,222.734 247.430 C 222.431 247.430,222.182 247.279,222.182 247.094 C 222.182 246.909,221.817 246.642,221.371 246.501 C 220.924 246.360,220.347 245.943,220.088 245.575 C 219.829 245.207,219.390 244.905,219.114 244.905 C 218.837 244.905,218.481 244.702,218.323 244.454 C 217.999 243.948,216.993 243.274,215.780 242.749 C 215.334 242.556,214.968 242.250,214.968 242.068 C 214.968 241.886,214.563 241.636,214.067 241.511 C 213.571 241.387,213.165 241.126,213.165 240.931 C 213.165 240.736,212.916 240.577,212.613 240.577 C 212.309 240.577,211.967 240.334,211.853 240.036 C 211.739 239.739,211.346 239.495,210.980 239.495 C 210.615 239.495,210.186 239.292,210.027 239.044 C 209.734 238.586,208.733 237.882,207.755 237.446 C 207.457 237.313,207.084 236.990,206.925 236.727 C 206.767 236.464,206.401 236.249,206.114 236.249 C 205.826 236.249,205.591 236.090,205.591 235.895 C 205.591 235.700,205.197 235.442,204.715 235.321 C 204.233 235.201,203.752 234.873,203.644 234.593 C 203.537 234.314,203.137 234.085,202.755 234.085 C 202.373 234.085,201.968 233.841,201.853 233.544 C 201.739 233.246,201.397 233.003,201.093 233.003 C 200.790 233.003,200.541 232.851,200.541 232.666 C 200.541 232.481,200.176 232.215,199.729 232.074 C 199.283 231.933,198.706 231.516,198.447 231.148 C 198.187 230.779,197.749 230.478,197.473 230.478 C 197.196 230.478,196.840 230.275,196.682 230.027 C 196.358 229.521,195.352 228.846,194.139 228.322 C 193.693 228.129,193.327 227.822,193.327 227.640 C 193.327 227.459,192.922 227.208,192.426 227.084 C 191.930 226.959,191.524 226.698,191.524 226.503 C 191.524 226.309,191.275 226.150,190.972 226.150 C 190.668 226.150,190.326 225.906,190.212 225.609 C 190.097 225.311,189.697 225.068,189.321 225.068 C 188.946 225.068,188.638 224.914,188.638 224.727 C 188.638 224.390,187.251 223.501,186.023 223.051 C 185.676 222.924,185.392 222.672,185.392 222.492 C 185.392 222.312,185.027 222.006,184.581 221.813 C 183.367 221.289,182.362 220.614,182.038 220.108 C 181.879 219.860,181.450 219.657,181.085 219.657 C 180.719 219.657,180.326 219.414,180.212 219.116 C 180.098 218.819,179.792 218.575,179.532 218.575 C 179.272 218.575,178.836 218.265,178.563 217.887 C 178.290 217.508,177.863 217.276,177.614 217.372 C 177.365 217.467,177.055 217.209,176.924 216.798 C 176.794 216.387,176.382 216.050,176.008 216.050 C 175.635 216.050,175.199 215.848,175.040 215.600 C 174.717 215.093,173.711 214.419,172.498 213.894 C 172.051 213.701,171.686 213.395,171.686 213.213 C 171.686 213.031,171.280 212.781,170.784 212.656 C 170.289 212.532,169.883 212.271,169.883 212.076 C 169.883 211.881,169.634 211.722,169.330 211.722 C 169.027 211.722,168.685 211.479,168.570 211.181 C 168.456 210.884,168.056 210.640,167.680 210.640 C 167.305 210.640,166.997 210.474,166.997 210.271 C 166.997 210.067,166.632 209.743,166.186 209.550 C 165.133 209.095,163.990 208.376,163.710 207.993 C 163.442 207.627,162.009 206.772,161.136 206.456 C 160.789 206.331,160.505 206.080,160.505 205.900 C 160.505 205.720,160.140 205.415,159.693 205.222 C 158.556 204.730,157.543 204.066,156.903 203.393 C 156.603 203.077,156.168 202.883,155.937 202.962 C 155.706 203.041,155.411 202.772,155.281 202.364 C 155.152 201.957,154.740 201.623,154.367 201.623 C 153.993 201.623,153.558 201.420,153.399 201.172 C 153.075 200.666,152.070 199.992,150.857 199.467 C 150.410 199.274,150.045 198.967,150.045 198.786 C 150.045 198.604,149.639 198.353,149.143 198.229 C 148.647 198.104,148.242 197.843,148.242 197.649 C 148.242 197.454,148.006 197.295,147.719 197.295 C 147.431 197.295,147.066 197.080,146.907 196.817 C 146.748 196.554,146.375 196.227,146.078 196.091 C 145.780 195.955,145.050 195.519,144.454 195.123 C 143.859 194.726,143.088 194.303,142.741 194.183 C 142.394 194.063,142.110 193.817,142.110 193.637 C 142.110 193.457,141.745 193.152,141.298 192.959 C 140.085 192.434,139.080 191.760,138.756 191.253 C 138.597 191.005,138.232 190.803,137.944 190.803 C 137.656 190.803,137.421 190.651,137.421 190.466 C 137.421 190.281,137.056 190.014,136.610 189.874 C 136.163 189.733,135.555 189.341,135.257 189.004 C 134.959 188.667,134.527 188.455,134.296 188.534 C 134.065 188.613,133.770 188.345,133.640 187.937 C 133.508 187.521,133.095 187.196,132.697 187.196 C 132.307 187.196,131.895 186.952,131.781 186.655 C 131.666 186.357,131.372 186.114,131.126 186.114 C 130.880 186.114,130.341 185.821,129.929 185.464 C 129.517 185.106,128.599 184.501,127.890 184.119 C 127.181 183.737,126.601 183.299,126.601 183.146 C 126.601 182.993,126.365 182.867,126.077 182.867 C 125.790 182.867,125.425 182.665,125.266 182.417 C 124.946 181.917,123.943 181.240,122.758 180.725 C 122.331 180.539,121.875 180.215,121.745 180.004 C 121.452 179.530,120.108 179.495,120.108 179.961 M279.892 259.513 C 279.892 344.595,279.973 340.516,278.320 338.864 C 278.023 338.566,277.605 338.323,277.393 338.323 C 277.180 338.323,277.006 338.156,277.006 337.953 C 277.006 337.750,276.641 337.423,276.195 337.226 C 275.748 337.030,274.896 336.545,274.301 336.149 C 273.706 335.753,272.946 335.334,272.613 335.217 C 272.279 335.101,271.919 334.778,271.813 334.500 C 271.706 334.222,271.370 333.995,271.066 333.995 C 270.763 333.995,270.514 333.843,270.514 333.658 C 270.514 333.473,270.149 333.206,269.702 333.065 C 269.256 332.924,268.677 332.505,268.415 332.133 C 268.154 331.762,267.800 331.544,267.628 331.650 C 267.457 331.756,267.103 331.538,266.842 331.167 C 266.580 330.795,266.001 330.376,265.555 330.235 C 265.108 330.094,264.743 329.827,264.743 329.642 C 264.743 329.457,264.494 329.306,264.191 329.306 C 263.887 329.306,263.545 329.062,263.431 328.765 C 263.317 328.467,262.924 328.224,262.558 328.224 C 262.193 328.224,261.764 328.021,261.605 327.773 C 261.267 327.245,260.141 326.489,259.243 326.187 C 258.895 326.071,258.611 325.824,258.611 325.638 C 258.611 325.452,258.124 325.131,257.529 324.923 C 256.934 324.716,256.447 324.400,256.447 324.221 C 256.447 324.042,256.204 323.895,255.906 323.895 C 255.609 323.895,255.365 323.729,255.365 323.526 C 255.365 323.323,255.000 322.995,254.554 322.799 C 254.107 322.603,253.255 322.118,252.660 321.722 C 252.065 321.326,251.305 320.906,250.972 320.790 C 250.638 320.673,250.278 320.351,250.172 320.073 C 250.065 319.795,249.729 319.567,249.425 319.567 C 249.121 319.567,248.873 319.416,248.873 319.231 C 248.873 319.046,248.508 318.779,248.061 318.638 C 247.615 318.497,246.966 318.056,246.619 317.657 C 246.271 317.258,245.982 317.079,245.975 317.258 C 245.969 317.437,245.676 317.239,245.324 316.818 C 244.972 316.398,244.329 315.940,243.893 315.802 C 243.458 315.664,243.102 315.400,243.102 315.215 C 243.102 315.030,242.853 314.878,242.550 314.878 C 242.246 314.878,241.904 314.635,241.790 314.337 C 241.675 314.040,241.283 313.796,240.917 313.796 C 240.551 313.796,240.122 313.593,239.964 313.345 C 239.626 312.818,238.499 312.061,237.601 311.760 C 237.254 311.643,236.970 311.396,236.970 311.211 C 236.970 311.025,236.483 310.703,235.888 310.496 C 235.293 310.289,234.806 309.972,234.806 309.793 C 234.806 309.614,234.563 309.468,234.265 309.468 C 233.968 309.468,233.724 309.332,233.724 309.165 C 233.724 308.999,233.359 308.672,232.913 308.440 C 232.466 308.208,231.614 307.696,231.019 307.304 C 230.424 306.912,229.693 306.479,229.396 306.343 C 229.098 306.207,228.725 305.881,228.566 305.618 C 228.408 305.355,228.043 305.140,227.755 305.140 C 227.467 305.140,227.232 304.988,227.232 304.803 C 227.232 304.618,226.867 304.352,226.420 304.211 C 225.974 304.070,225.325 303.628,224.977 303.230 C 224.630 302.831,224.341 302.651,224.334 302.830 C 224.328 303.009,224.035 302.812,223.683 302.391 C 223.331 301.970,222.687 301.513,222.252 301.375 C 221.817 301.237,221.461 300.972,221.461 300.787 C 221.461 300.602,221.212 300.451,220.908 300.451 C 220.605 300.451,220.263 300.207,220.148 299.910 C 220.034 299.612,219.726 299.369,219.464 299.369 C 219.202 299.369,218.766 299.166,218.496 298.918 C 217.778 298.260,216.683 297.575,215.960 297.332 C 215.613 297.216,215.329 296.969,215.329 296.783 C 215.329 296.598,214.842 296.276,214.247 296.069 C 213.652 295.861,213.165 295.545,213.165 295.366 C 213.165 295.187,212.922 295.041,212.624 295.041 C 212.326 295.041,212.083 294.904,212.083 294.738 C 212.083 294.571,211.718 294.245,211.271 294.013 C 210.825 293.780,209.973 293.269,209.378 292.877 C 208.783 292.484,208.052 292.052,207.755 291.916 C 207.457 291.780,207.084 291.453,206.925 291.190 C 206.767 290.927,206.401 290.712,206.114 290.712 C 205.826 290.712,205.591 290.561,205.591 290.376 C 205.591 290.191,205.225 289.924,204.779 289.783 C 204.333 289.642,203.683 289.201,203.336 288.802 C 202.989 288.403,202.700 288.224,202.693 288.403 C 202.687 288.582,202.393 288.384,202.042 287.964 C 201.690 287.543,201.046 287.086,200.611 286.947 C 200.176 286.809,199.820 286.545,199.820 286.360 C 199.820 286.175,199.571 286.023,199.267 286.023 C 198.964 286.023,198.622 285.780,198.507 285.482 C 198.393 285.185,198.085 284.941,197.823 284.941 C 197.561 284.941,197.125 284.739,196.855 284.491 C 196.190 283.881,195.121 283.210,194.139 282.785 C 193.693 282.592,193.327 282.286,193.327 282.104 C 193.327 281.922,192.922 281.672,192.426 281.547 C 191.930 281.423,191.524 281.162,191.524 280.967 C 191.524 280.772,191.280 280.613,190.983 280.613 C 190.685 280.613,190.442 280.477,190.442 280.310 C 190.442 280.144,190.077 279.817,189.630 279.585 C 189.184 279.353,188.332 278.838,187.737 278.441 C 187.142 278.044,186.371 277.621,186.023 277.501 C 185.676 277.381,185.392 277.135,185.392 276.955 C 185.392 276.775,185.027 276.470,184.581 276.277 C 183.370 275.754,182.437 275.108,181.725 274.301 C 181.375 273.904,181.083 273.726,181.076 273.906 C 181.069 274.085,180.780 273.905,180.433 273.506 C 180.086 273.108,179.436 272.666,178.990 272.525 C 178.544 272.384,178.179 272.117,178.179 271.932 C 178.179 271.747,177.930 271.596,177.626 271.596 C 177.322 271.596,176.980 271.353,176.866 271.055 C 176.752 270.757,176.444 270.514,176.182 270.514 C 175.920 270.514,175.484 270.311,175.213 270.063 C 174.549 269.454,173.479 268.782,172.498 268.358 C 172.051 268.165,171.686 267.858,171.686 267.677 C 171.686 267.495,171.280 267.244,170.784 267.120 C 170.289 266.995,169.883 266.734,169.883 266.540 C 169.883 266.345,169.653 266.186,169.372 266.186 C 169.091 266.186,168.807 266.064,168.741 265.915 C 168.581 265.557,166.622 264.215,165.825 263.918 C 165.478 263.789,165.194 263.516,165.194 263.312 C 165.194 263.107,164.887 262.940,164.511 262.940 C 164.136 262.940,163.735 262.696,163.621 262.399 C 163.507 262.101,163.184 261.858,162.905 261.858 C 162.625 261.858,162.195 261.614,161.948 261.317 C 161.701 261.019,161.194 260.775,160.821 260.775 C 160.165 260.775,160.144 261.659,160.144 290.352 C 160.144 316.401,160.080 319.928,159.603 319.928 C 159.306 319.928,159.062 320.077,159.062 320.260 C 159.062 320.443,158.575 320.699,157.980 320.830 C 157.385 320.960,156.898 321.204,156.898 321.371 C 156.898 321.537,156.411 321.781,155.816 321.912 C 155.221 322.042,154.734 322.263,154.734 322.402 C 154.734 322.541,153.922 322.969,152.931 323.354 C 151.939 323.739,151.127 324.208,151.127 324.396 C 151.127 324.583,151.020 324.630,150.890 324.500 C 150.759 324.369,150.460 324.422,150.225 324.617 C 149.532 325.192,145.576 327.132,145.086 327.137 C 144.838 327.140,144.635 327.291,144.635 327.474 C 144.635 327.656,144.148 327.913,143.553 328.043 C 142.958 328.174,142.471 328.417,142.471 328.584 C 142.471 328.751,141.984 328.995,141.389 329.125 C 140.794 329.256,140.307 329.477,140.307 329.616 C 140.307 329.755,139.495 330.183,138.503 330.568 C 137.511 330.953,136.700 331.422,136.700 331.609 C 136.700 331.797,136.593 331.844,136.462 331.713 C 136.332 331.583,136.033 331.636,135.798 331.831 C 135.105 332.406,131.148 334.346,130.658 334.351 C 130.410 334.353,130.207 334.505,130.207 334.687 C 130.207 334.870,129.720 335.126,129.125 335.257 C 128.530 335.388,128.043 335.631,128.043 335.798 C 128.043 335.965,127.556 336.208,126.961 336.339 C 126.366 336.470,125.879 336.726,125.879 336.909 C 125.879 337.091,125.636 337.241,125.338 337.241 C 125.041 337.241,124.797 337.403,124.797 337.601 C 124.797 337.800,124.675 337.936,124.527 337.903 C 123.969 337.781,122.272 338.414,122.272 338.744 C 122.272 338.932,122.141 339.006,121.981 338.907 C 121.594 338.668,119.500 340.354,119.803 340.660 C 120.068 340.928,123.063 339.647,124.436 338.678 C 124.932 338.328,125.456 338.009,125.600 337.970 C 125.745 337.931,126.191 337.813,126.592 337.708 C 126.994 337.603,127.322 337.387,127.322 337.227 C 127.322 337.068,127.809 336.830,128.404 336.700 C 128.999 336.569,129.486 336.326,129.486 336.159 C 129.486 335.992,129.973 335.748,130.568 335.618 C 131.163 335.487,131.650 335.243,131.650 335.077 C 131.650 334.910,132.137 334.666,132.732 334.536 C 133.327 334.405,133.814 334.149,133.814 333.966 C 133.814 333.783,133.985 333.634,134.195 333.634 C 134.743 333.634,137.805 332.211,138.864 331.464 C 139.360 331.114,139.928 330.784,140.126 330.731 C 140.325 330.677,140.771 330.559,141.118 330.469 C 141.465 330.378,141.749 330.173,141.749 330.014 C 141.749 329.854,142.236 329.617,142.831 329.486 C 143.427 329.355,143.913 329.112,143.913 328.945 C 143.913 328.778,144.400 328.535,144.995 328.404 C 145.591 328.273,146.078 328.030,146.078 327.863 C 146.078 327.696,146.564 327.453,147.160 327.322 C 147.755 327.191,148.242 326.935,148.242 326.752 C 148.242 326.570,148.413 326.420,148.622 326.420 C 149.171 326.420,152.233 324.997,153.291 324.250 C 153.787 323.900,154.274 323.592,154.373 323.564 C 154.472 323.537,154.919 323.419,155.365 323.302 C 155.812 323.185,156.177 322.959,156.177 322.800 C 156.177 322.640,156.664 322.403,157.259 322.272 C 157.854 322.142,158.341 321.903,158.341 321.742 C 158.341 321.581,158.766 321.342,159.286 321.212 C 161.334 320.698,161.226 322.366,161.226 291.133 L 161.226 262.286 162.038 262.490 C 162.484 262.602,162.979 262.912,163.138 263.177 C 163.296 263.443,163.662 263.661,163.949 263.661 C 164.237 263.661,164.472 263.820,164.472 264.015 C 164.472 264.209,164.878 264.470,165.374 264.595 C 165.870 264.719,166.276 264.949,166.276 265.105 C 166.276 265.261,167.128 265.931,168.170 266.592 C 169.211 267.254,170.117 267.920,170.183 268.073 C 170.249 268.225,170.459 268.350,170.649 268.350 C 171.053 268.350,173.254 269.848,173.430 270.243 C 173.496 270.392,173.785 270.514,174.072 270.514 C 174.359 270.514,174.682 270.741,174.788 271.019 C 174.895 271.297,175.255 271.620,175.589 271.737 C 175.922 271.853,176.682 272.277,177.277 272.678 C 177.872 273.079,178.643 273.506,178.990 273.626 C 179.337 273.746,179.621 273.979,179.621 274.143 C 179.621 274.432,180.727 275.125,182.417 275.897 C 182.863 276.100,183.228 276.433,183.228 276.637 C 183.228 276.840,183.535 277.006,183.911 277.006 C 184.286 277.006,184.687 277.250,184.801 277.547 C 184.915 277.845,185.257 278.088,185.561 278.088 C 185.865 278.088,186.114 278.248,186.114 278.442 C 186.114 278.637,186.519 278.898,187.015 279.022 C 187.511 279.147,187.917 279.366,187.917 279.509 C 187.917 279.653,188.769 280.318,189.811 280.987 C 190.852 281.656,191.758 282.333,191.824 282.490 C 191.891 282.648,192.100 282.777,192.290 282.777 C 192.694 282.777,194.895 284.276,195.071 284.671 C 195.137 284.820,195.426 284.941,195.713 284.941 C 196.000 284.941,196.329 285.185,196.443 285.482 C 196.557 285.780,196.958 286.023,197.333 286.023 C 197.709 286.023,198.016 286.194,198.016 286.403 C 198.016 286.612,198.503 286.952,199.098 287.160 C 199.693 287.367,200.180 287.683,200.180 287.862 C 200.180 288.041,200.350 288.188,200.556 288.188 C 200.763 288.188,201.128 288.353,201.368 288.555 C 203.102 290.017,203.593 290.352,204.005 290.352 C 204.262 290.352,204.603 290.555,204.761 290.803 C 205.099 291.330,206.226 292.086,207.124 292.388 C 207.471 292.505,207.755 292.732,207.755 292.894 C 207.755 293.056,208.119 293.304,208.565 293.446 C 209.010 293.587,209.565 293.963,209.798 294.282 C 210.031 294.600,210.363 294.860,210.536 294.860 C 210.708 294.860,211.516 295.388,212.330 296.032 C 213.144 296.677,213.915 297.205,214.043 297.205 C 214.365 297.205,216.564 298.765,216.712 299.098 C 216.778 299.247,217.067 299.369,217.354 299.369 C 217.642 299.369,217.970 299.612,218.084 299.910 C 218.198 300.207,218.599 300.451,218.975 300.451 C 219.350 300.451,219.657 300.617,219.657 300.820 C 219.657 301.024,220.023 301.348,220.469 301.541 C 221.682 302.066,222.688 302.740,223.012 303.246 C 223.170 303.494,223.535 303.697,223.823 303.697 C 224.111 303.697,224.346 303.843,224.346 304.022 C 224.346 304.201,224.833 304.518,225.428 304.725 C 226.023 304.932,226.510 305.254,226.510 305.440 C 226.510 305.625,226.794 305.872,227.142 305.989 C 228.006 306.279,229.090 307.000,229.788 307.748 C 230.109 308.092,230.478 308.266,230.608 308.135 C 230.739 308.004,231.075 308.210,231.354 308.593 C 231.634 308.975,232.004 309.288,232.177 309.288 C 232.349 309.288,233.157 309.815,233.971 310.460 C 234.785 311.105,235.636 311.632,235.861 311.632 C 236.087 311.632,236.359 311.861,236.467 312.141 C 236.574 312.420,237.056 312.748,237.537 312.869 C 238.019 312.990,238.413 313.248,238.413 313.442 C 238.413 313.637,238.662 313.796,238.965 313.796 C 239.269 313.796,239.611 314.040,239.725 314.337 C 239.839 314.635,240.223 314.878,240.577 314.878 C 240.931 314.878,241.315 315.122,241.429 315.419 C 241.543 315.717,241.885 315.960,242.189 315.960 C 242.493 315.960,242.741 316.120,242.741 316.314 C 242.741 316.509,243.135 316.767,243.617 316.888 C 244.098 317.009,244.580 317.336,244.688 317.616 C 244.795 317.896,245.131 318.124,245.435 318.124 C 245.739 318.124,245.987 318.271,245.987 318.450 C 245.987 318.629,246.434 318.951,246.979 319.166 C 248.288 319.682,249.346 320.363,249.702 320.920 C 249.861 321.168,250.190 321.371,250.434 321.371 C 250.678 321.371,251.105 321.687,251.384 322.073 C 251.662 322.459,252.033 322.686,252.209 322.578 C 252.384 322.469,252.747 322.681,253.016 323.048 C 253.284 323.415,253.645 323.715,253.818 323.715 C 253.991 323.715,254.798 324.243,255.612 324.887 C 256.426 325.532,257.277 326.060,257.502 326.060 C 257.728 326.060,258.000 326.288,258.108 326.568 C 258.215 326.848,258.697 327.175,259.178 327.296 C 259.660 327.417,260.054 327.675,260.054 327.870 C 260.054 328.064,260.303 328.224,260.606 328.224 C 260.910 328.224,261.252 328.467,261.366 328.765 C 261.481 329.062,261.864 329.306,262.218 329.306 C 262.573 329.306,262.956 329.549,263.070 329.847 C 263.184 330.144,263.526 330.388,263.830 330.388 C 264.134 330.388,264.382 330.547,264.382 330.742 C 264.382 330.936,264.776 331.194,265.258 331.315 C 265.740 331.436,266.221 331.764,266.329 332.043 C 266.436 332.323,266.863 332.552,267.278 332.552 C 267.692 332.552,267.941 332.698,267.831 332.877 C 267.720 333.056,268.076 333.379,268.621 333.594 C 269.929 334.109,270.987 334.791,271.343 335.347 C 271.502 335.595,271.831 335.798,272.075 335.798 C 272.319 335.798,272.747 336.114,273.025 336.500 C 273.303 336.886,273.674 337.113,273.850 337.005 C 274.025 336.897,274.388 337.108,274.657 337.475 C 274.925 337.842,275.286 338.142,275.459 338.142 C 275.632 338.142,276.416 338.643,277.201 339.255 C 278.877 340.560,279.690 340.903,280.433 340.617 C 281.257 340.301,281.257 179.621,280.433 179.621 C 279.954 179.621,279.892 188.739,279.892 259.513 " stroke="none" fill="#fcfcfc" fill-rule="evenodd"></path><path id="path1" d="" stroke="none" fill="#100fcfc" fill-rule="evenodd"></path><path id="path2" d="" stroke="none" fill="#100fcfc" fill-rule="evenodd"></path><path id="path3" d="" stroke="none" fill="#100fcfc" fill-rule="evenodd"></path><path id="path4" d="" stroke="none" fill="#100fcfc" fill-rule="evenodd"></path></g></svg>