<svg id="svg" version="1.1" xmlns="http://www.w3.org/2000/svg" xmlns:xlink="http://www.w3.org/1999/xlink" width="400" height="360.6102635228849" viewBox="0, 0, 400,360.6102635228849"><g id="svgg"><path id="path0" d="M19.838 180.343 L 19.838 340.848 50.063 340.848 C 73.091 340.848,80.392 340.745,80.721 340.415 C 81.056 340.080,81.155 313.001,81.160 220.757 C 81.163 155.184,81.303 101.750,81.472 102.016 C 81.795 102.527,83.071 103.350,84.130 103.733 C 84.477 103.859,84.761 104.109,84.761 104.289 C 84.761 104.469,85.126 104.774,85.573 104.967 C 86.430 105.338,87.704 106.093,88.007 106.410 C 88.106 106.514,88.593 106.873,89.089 107.208 C 89.585 107.544,90.902 108.447,92.016 109.217 C 93.130 109.986,94.306 110.718,94.631 110.842 C 94.955 110.967,95.221 111.218,95.221 111.401 C 95.221 111.584,95.627 111.836,96.123 111.961 C 96.619 112.085,97.024 112.346,97.024 112.541 C 97.024 112.735,97.193 112.894,97.400 112.894 C 97.721 112.894,99.727 114.155,100.271 114.698 C 100.635 115.062,101.911 115.807,102.525 116.013 C 102.872 116.129,103.156 116.359,103.156 116.524 C 103.156 116.825,104.604 117.730,105.771 118.158 C 106.118 118.285,106.402 118.536,106.402 118.716 C 106.402 118.897,106.767 119.202,107.214 119.395 C 108.343 119.883,108.968 120.290,111.632 122.272 C 114.296 124.255,114.921 124.661,116.050 125.150 C 116.497 125.343,116.862 125.648,116.862 125.828 C 116.862 126.008,117.146 126.258,117.493 126.384 C 117.840 126.509,118.449 126.814,118.846 127.062 C 120.256 127.940,121.734 128.931,121.912 129.117 C 122.255 129.477,123.538 130.229,124.166 130.440 C 124.513 130.557,124.797 130.787,124.797 130.951 C 124.797 131.253,126.245 132.157,127.412 132.585 C 127.759 132.712,128.043 132.964,128.043 133.144 C 128.043 133.324,128.408 133.629,128.855 133.822 C 129.985 134.311,130.609 134.717,133.273 136.700 C 135.938 138.682,136.562 139.089,137.692 139.577 C 138.138 139.770,138.503 140.075,138.503 140.256 C 138.503 140.436,138.787 140.687,139.134 140.815 C 140.362 141.264,141.749 142.154,141.749 142.490 C 141.749 142.678,141.981 142.831,142.265 142.831 C 142.548 142.831,143.001 143.034,143.272 143.282 C 143.990 143.940,145.085 144.625,145.807 144.868 C 146.154 144.984,146.438 145.214,146.438 145.379 C 146.438 145.680,147.886 146.584,149.053 147.012 C 149.400 147.140,149.684 147.391,149.684 147.571 C 149.684 147.751,150.050 148.057,150.496 148.250 C 151.626 148.738,152.250 149.145,154.914 151.127 C 157.579 153.109,158.203 153.516,159.333 154.005 C 159.779 154.198,160.144 154.503,160.144 154.683 C 160.144 154.863,160.428 155.115,160.775 155.242 C 162.003 155.692,163.390 156.581,163.390 156.918 C 163.390 157.105,163.622 157.259,163.906 157.259 C 164.189 157.259,164.642 157.462,164.913 157.710 C 165.631 158.368,166.726 159.053,167.448 159.295 C 167.795 159.412,168.079 159.642,168.079 159.806 C 168.079 160.107,169.527 161.012,170.694 161.440 C 171.041 161.567,171.326 161.819,171.326 161.999 C 171.326 162.179,171.691 162.484,172.137 162.677 C 173.267 163.166,173.891 163.572,176.555 165.555 C 179.220 167.537,179.844 167.944,180.974 168.432 C 181.420 168.625,181.785 168.930,181.785 169.110 C 181.785 169.291,182.069 169.542,182.417 169.669 C 183.644 170.119,185.032 171.009,185.032 171.345 C 185.032 171.533,185.263 171.686,185.547 171.686 C 185.830 171.686,186.283 171.889,186.554 172.137 C 187.272 172.795,188.367 173.480,189.089 173.723 C 189.436 173.839,189.720 174.069,189.720 174.233 C 189.720 174.535,191.168 175.439,192.335 175.867 C 192.683 175.994,192.967 176.246,192.967 176.426 C 192.967 176.606,193.332 176.912,193.778 177.105 C 194.954 177.613,195.749 178.137,198.156 179.986 C 199.893 181.321,200.107 181.321,201.844 179.986 C 204.251 178.137,205.046 177.613,206.222 177.105 C 206.668 176.912,207.033 176.606,207.033 176.426 C 207.033 176.246,207.317 175.994,207.665 175.867 C 208.832 175.439,210.280 174.535,210.280 174.233 C 210.280 174.069,210.564 173.839,210.911 173.723 C 211.633 173.480,212.728 172.795,213.446 172.137 C 213.717 171.889,214.170 171.686,214.453 171.686 C 214.737 171.686,214.968 171.533,214.968 171.345 C 214.968 171.009,216.356 170.119,217.583 169.669 C 217.931 169.542,218.215 169.291,218.215 169.110 C 218.215 168.930,218.580 168.625,219.026 168.432 C 220.156 167.944,220.780 167.537,223.445 165.555 C 226.109 163.572,226.733 163.166,227.863 162.677 C 228.309 162.484,228.674 162.179,228.674 161.999 C 228.674 161.819,228.959 161.567,229.306 161.440 C 230.473 161.012,231.921 160.107,231.921 159.806 C 231.921 159.642,232.205 159.412,232.552 159.295 C 233.274 159.053,234.369 158.368,235.087 157.710 C 235.358 157.462,235.811 157.259,236.094 157.259 C 236.378 157.259,236.610 157.105,236.610 156.918 C 236.610 156.581,237.997 155.692,239.225 155.242 C 239.572 155.115,239.856 154.863,239.856 154.683 C 239.856 154.503,240.221 154.198,240.667 154.005 C 241.797 153.516,242.421 153.109,245.086 151.127 C 247.750 149.145,248.374 148.738,249.504 148.250 C 249.950 148.057,250.316 147.751,250.316 147.571 C 250.316 147.391,250.600 147.140,250.947 147.012 C 252.114 146.584,253.562 145.680,253.562 145.379 C 253.562 145.214,253.846 144.984,254.193 144.868 C 254.915 144.625,256.010 143.940,256.728 143.282 C 256.999 143.034,257.452 142.831,257.735 142.831 C 258.019 142.831,258.251 142.678,258.251 142.490 C 258.251 142.154,259.638 141.264,260.866 140.815 C 261.213 140.687,261.497 140.436,261.497 140.256 C 261.497 140.075,261.862 139.770,262.308 139.577 C 263.438 139.089,264.062 138.682,266.727 136.700 C 269.391 134.717,270.015 134.311,271.145 133.822 C 271.592 133.629,271.957 133.324,271.957 133.144 C 271.957 132.964,272.241 132.712,272.588 132.585 C 273.755 132.157,275.203 131.253,275.203 130.951 C 275.203 130.787,275.487 130.557,275.834 130.440 C 276.462 130.229,277.745 129.477,278.088 129.117 C 278.266 128.931,279.744 127.940,281.154 127.062 C 281.551 126.814,282.160 126.509,282.507 126.384 C 282.854 126.258,283.138 126.008,283.138 125.828 C 283.138 125.648,283.503 125.343,283.950 125.150 C 285.079 124.661,285.704 124.255,288.368 122.272 C 291.032 120.290,291.657 119.883,292.786 119.395 C 293.233 119.202,293.598 118.897,293.598 118.716 C 293.598 118.536,293.882 118.285,294.229 118.158 C 295.396 117.730,296.844 116.825,296.844 116.524 C 296.844 116.359,297.128 116.129,297.475 116.013 C 298.103 115.802,299.386 115.049,299.729 114.690 C 300.084 114.319,303.137 112.382,304.058 111.944 C 304.355 111.802,304.729 111.471,304.887 111.208 C 305.046 110.946,305.313 110.730,305.482 110.730 C 305.650 110.730,306.738 110.075,307.899 109.274 C 309.059 108.473,310.415 107.544,310.911 107.208 C 311.407 106.873,311.894 106.514,311.993 106.410 C 312.296 106.093,313.570 105.338,314.427 104.967 C 314.874 104.774,315.239 104.469,315.239 104.289 C 315.239 104.109,315.523 103.859,315.870 103.733 C 316.929 103.350,318.205 102.527,318.528 102.016 C 318.697 101.750,318.837 155.184,318.840 220.757 C 318.845 313.001,318.944 340.080,319.279 340.415 C 319.906 341.042,379.824 341.042,380.451 340.415 C 380.786 340.079,380.884 303.929,380.884 179.910 L 380.884 19.838 349.504 19.838 C 330.032 19.838,318.124 19.967,318.124 20.179 C 318.124 20.515,316.737 21.405,315.509 21.855 C 315.162 21.982,314.878 22.233,314.878 22.413 C 314.878 22.594,314.513 22.899,314.067 23.092 C 313.232 23.453,311.951 24.208,311.632 24.527 C 311.113 25.046,309.090 26.330,308.791 26.330 C 308.601 26.330,308.392 26.452,308.326 26.601 C 308.148 27.001,305.947 28.494,305.536 28.494 C 305.340 28.494,304.966 28.778,304.704 29.125 C 304.183 29.815,303.244 30.466,301.984 31.011 C 301.537 31.204,301.172 31.510,301.172 31.692 C 301.172 31.874,300.766 32.125,300.271 32.249 C 299.775 32.374,299.369 32.635,299.369 32.829 C 299.369 33.024,299.189 33.183,298.970 33.183 C 298.750 33.183,297.979 33.629,297.255 34.175 C 295.498 35.500,294.626 36.047,293.868 36.301 C 293.521 36.418,293.237 36.661,293.237 36.841 C 293.237 37.021,292.872 37.326,292.426 37.519 C 291.590 37.880,290.310 38.635,289.991 38.954 C 289.472 39.473,287.449 40.757,287.150 40.757 C 286.960 40.757,286.751 40.879,286.685 41.028 C 286.507 41.428,284.306 42.922,283.894 42.922 C 283.699 42.922,283.325 43.206,283.063 43.553 C 282.542 44.243,281.603 44.893,280.343 45.438 C 279.896 45.631,279.531 45.938,279.531 46.120 C 279.531 46.301,279.125 46.552,278.629 46.677 C 278.133 46.801,277.728 47.062,277.728 47.257 C 277.728 47.451,277.548 47.610,277.329 47.610 C 277.109 47.610,276.338 48.057,275.614 48.602 C 273.857 49.927,272.985 50.474,272.227 50.729 C 271.880 50.845,271.596 51.088,271.596 51.268 C 271.596 51.448,271.231 51.754,270.784 51.947 C 269.949 52.308,268.669 53.062,268.350 53.381 C 267.831 53.901,265.808 55.185,265.509 55.185 C 265.319 55.185,265.110 55.307,265.044 55.455 C 264.866 55.855,262.665 57.349,262.253 57.349 C 262.058 57.349,261.684 57.633,261.422 57.980 C 260.901 58.670,259.962 59.321,258.702 59.866 C 258.255 60.059,257.890 60.364,257.890 60.544 C 257.890 60.724,257.606 60.974,257.259 61.100 C 256.479 61.382,255.543 61.949,253.922 63.120 C 252.302 64.291,251.366 64.858,250.586 65.140 C 250.239 65.265,249.955 65.516,249.955 65.696 C 249.955 65.876,249.590 66.181,249.143 66.374 C 248.308 66.735,247.028 67.490,246.709 67.809 C 246.190 68.328,244.167 69.612,243.868 69.612 C 243.678 69.612,243.469 69.734,243.402 69.883 C 243.252 70.222,241.053 71.776,240.724 71.776 C 240.591 71.776,240.217 72.060,239.893 72.408 C 239.220 73.129,238.234 73.786,237.060 74.293 C 236.614 74.486,236.249 74.791,236.249 74.972 C 236.249 75.152,235.965 75.402,235.618 75.527 C 234.838 75.809,233.901 76.376,232.281 77.547 C 230.661 78.718,229.724 79.286,228.945 79.567 C 228.598 79.693,228.314 79.943,228.314 80.123 C 228.314 80.303,227.949 80.609,227.502 80.802 C 226.667 81.163,225.387 81.917,225.068 82.236 C 224.548 82.755,222.525 84.040,222.227 84.040 C 222.037 84.040,221.827 84.161,221.761 84.310 C 221.611 84.649,219.412 86.204,219.083 86.204 C 218.950 86.204,218.575 86.488,218.252 86.835 C 217.579 87.557,216.593 88.213,215.419 88.721 C 214.973 88.914,214.608 89.219,214.608 89.399 C 214.608 89.579,214.324 89.829,213.977 89.955 C 213.197 90.236,212.260 90.804,210.640 91.975 C 209.020 93.146,208.083 93.713,207.304 93.995 C 206.957 94.120,206.673 94.358,206.673 94.522 C 206.673 94.823,205.225 95.728,204.058 96.156 C 203.711 96.283,203.427 96.535,203.427 96.715 C 203.427 96.895,203.061 97.200,202.615 97.393 C 201.511 97.871,200.416 98.572,200.096 99.008 C 199.926 99.239,199.829 99.221,199.825 98.960 C 199.822 98.735,199.536 98.449,199.188 98.323 C 198.315 98.007,196.882 97.152,196.615 96.786 C 196.334 96.403,195.191 95.684,194.139 95.229 C 193.693 95.036,193.327 94.731,193.327 94.551 C 193.327 94.370,193.043 94.120,192.696 93.995 C 191.917 93.713,190.980 93.146,189.360 91.975 C 187.740 90.804,186.803 90.236,186.023 89.955 C 185.676 89.829,185.392 89.579,185.392 89.399 C 185.392 89.219,185.027 88.914,184.581 88.721 C 183.407 88.213,182.421 87.557,181.748 86.835 C 181.425 86.488,181.050 86.204,180.917 86.204 C 180.588 86.204,178.389 84.649,178.239 84.310 C 178.173 84.161,177.963 84.040,177.773 84.040 C 177.475 84.040,175.452 82.755,174.932 82.236 C 174.613 81.917,173.333 81.163,172.498 80.802 C 172.051 80.609,171.686 80.303,171.686 80.123 C 171.686 79.943,171.402 79.693,171.055 79.567 C 170.276 79.286,169.339 78.718,167.719 77.547 C 166.099 76.376,165.162 75.809,164.382 75.527 C 164.035 75.402,163.751 75.152,163.751 74.972 C 163.751 74.791,163.386 74.486,162.940 74.293 C 161.766 73.786,160.780 73.129,160.107 72.408 C 159.783 72.060,159.409 71.776,159.276 71.776 C 158.947 71.776,156.748 70.222,156.598 69.883 C 156.531 69.734,156.322 69.612,156.132 69.612 C 155.833 69.612,153.810 68.328,153.291 67.809 C 152.972 67.490,151.692 66.735,150.857 66.374 C 150.410 66.181,150.045 65.876,150.045 65.696 C 150.045 65.516,149.761 65.265,149.414 65.140 C 148.634 64.858,147.698 64.291,146.078 63.120 C 144.457 61.949,143.521 61.382,142.741 61.100 C 142.394 60.974,142.110 60.724,142.110 60.544 C 142.110 60.364,141.745 60.059,141.298 59.866 C 140.038 59.321,139.099 58.670,138.578 57.980 C 138.316 57.633,137.942 57.349,137.747 57.349 C 137.335 57.349,135.134 55.855,134.956 55.455 C 134.890 55.307,134.681 55.185,134.491 55.185 C 134.192 55.185,132.169 53.901,131.650 53.381 C 131.331 53.062,130.051 52.308,129.216 51.947 C 128.769 51.754,128.404 51.448,128.404 51.268 C 128.404 51.088,128.120 50.845,127.773 50.729 C 127.015 50.474,126.143 49.927,124.386 48.602 C 123.662 48.057,122.891 47.610,122.671 47.610 C 122.452 47.610,122.272 47.451,122.272 47.257 C 122.272 47.062,121.867 46.801,121.371 46.677 C 120.875 46.552,120.469 46.301,120.469 46.120 C 120.469 45.938,120.104 45.631,119.657 45.438 C 118.397 44.893,117.458 44.243,116.937 43.553 C 116.675 43.206,116.301 42.922,116.106 42.922 C 115.694 42.922,113.493 41.428,113.315 41.028 C 113.249 40.879,113.040 40.757,112.850 40.757 C 112.551 40.757,110.528 39.473,110.009 38.954 C 109.690 38.635,108.410 37.880,107.574 37.519 C 107.128 37.326,106.763 37.021,106.763 36.841 C 106.763 36.661,106.479 36.418,106.132 36.301 C 105.374 36.047,104.502 35.500,102.745 34.175 C 102.021 33.629,101.250 33.183,101.030 33.183 C 100.811 33.183,100.631 33.024,100.631 32.829 C 100.631 32.635,100.225 32.374,99.729 32.249 C 99.234 32.125,98.828 31.874,98.828 31.692 C 98.828 31.510,98.463 31.204,98.016 31.011 C 96.756 30.466,95.817 29.815,95.296 29.125 C 95.034 28.778,94.660 28.494,94.464 28.494 C 94.053 28.494,91.852 27.001,91.674 26.601 C 91.608 26.452,91.399 26.330,91.209 26.330 C 90.910 26.330,88.887 25.046,88.368 24.527 C 88.049 24.208,86.768 23.453,85.933 23.092 C 85.487 22.899,85.122 22.594,85.122 22.413 C 85.122 22.233,84.838 21.982,84.491 21.855 C 83.263 21.405,81.876 20.515,81.876 20.179 C 81.876 19.967,70.102 19.838,50.857 19.838 L 19.838 19.838 19.838 180.343 M119.476 260.144 L 119.567 340.667 120.453 340.568 C 120.940 340.514,121.427 340.333,121.535 340.166 C 121.643 339.999,122.137 339.738,122.633 339.587 C 123.129 339.435,123.950 339.018,124.458 338.660 C 124.966 338.303,125.819 337.901,126.352 337.767 C 126.885 337.633,127.322 337.391,127.322 337.230 C 127.322 337.069,127.809 336.830,128.404 336.700 C 128.999 336.569,129.486 336.326,129.486 336.159 C 129.486 335.992,129.973 335.748,130.568 335.618 C 131.163 335.487,131.650 335.243,131.650 335.077 C 131.650 334.910,132.137 334.666,132.732 334.536 C 133.327 334.405,133.814 334.161,133.814 333.995 C 133.814 333.828,134.301 333.584,134.896 333.454 C 135.491 333.323,135.978 333.066,135.978 332.884 C 135.978 332.701,136.181 332.551,136.429 332.550 C 136.677 332.548,137.367 332.283,137.962 331.960 C 141.086 330.265,143.059 329.314,143.463 329.310 C 143.711 329.308,143.913 329.156,143.913 328.974 C 143.913 328.791,144.400 328.535,144.995 328.404 C 145.591 328.273,146.078 328.030,146.078 327.863 C 146.078 327.696,146.564 327.453,147.160 327.322 C 147.755 327.191,148.242 326.948,148.242 326.781 C 148.242 326.614,148.729 326.371,149.324 326.240 C 149.919 326.109,150.406 325.870,150.406 325.709 C 150.406 325.548,150.850 325.305,151.394 325.168 C 151.938 325.032,152.465 324.806,152.566 324.667 C 152.828 324.307,157.445 322.092,157.934 322.092 C 158.158 322.092,158.341 321.947,158.341 321.770 C 158.341 321.594,158.777 321.339,159.310 321.205 C 161.282 320.711,161.203 321.971,161.215 290.836 L 161.226 261.925 162.125 262.342 C 162.620 262.572,163.025 262.885,163.027 263.039 C 163.028 263.192,163.395 263.476,163.841 263.669 C 165.055 264.194,166.060 264.868,166.384 265.374 C 166.543 265.622,166.844 265.825,167.053 265.825 C 167.382 265.825,168.079 266.315,170.138 267.995 C 170.378 268.190,170.668 268.350,170.784 268.350 C 170.981 268.350,173.095 269.759,173.490 270.153 C 173.809 270.472,175.089 271.227,175.924 271.588 C 176.371 271.781,176.736 272.088,176.736 272.269 C 176.736 272.451,177.142 272.702,177.638 272.826 C 178.133 272.951,178.539 273.212,178.539 273.406 C 178.539 273.601,178.719 273.760,178.938 273.760 C 179.158 273.760,179.929 274.206,180.653 274.752 C 182.410 276.077,183.282 276.624,184.040 276.879 C 184.387 276.995,184.671 277.238,184.671 277.418 C 184.671 277.598,185.036 277.903,185.482 278.096 C 186.696 278.621,187.701 279.295,188.025 279.802 C 188.184 280.050,188.485 280.252,188.694 280.252 C 189.023 280.252,189.720 280.743,191.779 282.422 C 192.019 282.617,192.309 282.777,192.425 282.777 C 192.622 282.777,194.737 284.187,195.131 284.581 C 195.450 284.900,196.730 285.654,197.565 286.015 C 198.012 286.208,198.377 286.515,198.377 286.697 C 198.377 286.879,198.783 287.129,199.279 287.254 C 199.775 287.378,200.180 287.639,200.180 287.834 C 200.180 288.028,200.360 288.188,200.579 288.188 C 200.799 288.188,201.570 288.634,202.294 289.179 C 204.051 290.504,204.923 291.051,205.681 291.306 C 206.028 291.422,206.312 291.665,206.312 291.845 C 206.312 292.026,206.677 292.331,207.124 292.524 C 208.337 293.048,209.342 293.723,209.666 294.229 C 209.825 294.477,210.126 294.680,210.336 294.680 C 210.664 294.680,211.361 295.170,213.420 296.849 C 213.660 297.045,213.951 297.205,214.066 297.205 C 214.263 297.205,216.378 298.614,216.772 299.008 C 217.091 299.327,218.371 300.082,219.206 300.443 C 219.653 300.636,220.018 300.942,220.018 301.124 C 220.018 301.306,220.424 301.557,220.920 301.681 C 221.416 301.805,221.821 302.067,221.821 302.261 C 221.821 302.456,222.001 302.615,222.220 302.615 C 222.440 302.615,223.211 303.061,223.935 303.607 C 225.692 304.932,226.564 305.479,227.322 305.733 C 227.669 305.850,227.953 306.093,227.953 306.273 C 227.953 306.453,228.318 306.758,228.765 306.951 C 229.978 307.476,230.984 308.150,231.307 308.656 C 231.466 308.904,231.767 309.107,231.977 309.107 C 232.305 309.107,233.002 309.597,235.061 311.277 C 235.301 311.472,235.592 311.632,235.707 311.632 C 235.904 311.632,238.019 313.041,238.413 313.436 C 238.732 313.755,240.012 314.509,240.848 314.870 C 241.294 315.063,241.659 315.368,241.659 315.549 C 241.659 315.729,241.943 315.980,242.290 316.108 C 243.458 316.536,244.905 317.440,244.905 317.741 C 244.905 317.906,245.189 318.138,245.537 318.259 C 245.884 318.379,246.655 318.805,247.250 319.206 C 247.845 319.608,248.616 320.034,248.963 320.154 C 249.310 320.274,249.594 320.520,249.594 320.700 C 249.594 320.880,249.959 321.186,250.406 321.379 C 251.619 321.903,252.625 322.578,252.948 323.084 C 253.107 323.332,253.408 323.535,253.618 323.535 C 253.946 323.535,254.643 324.025,256.703 325.704 C 256.942 325.900,257.233 326.060,257.348 326.060 C 257.546 326.060,259.660 327.469,260.054 327.863 C 260.373 328.182,261.654 328.937,262.489 329.298 C 262.935 329.491,263.300 329.796,263.300 329.976 C 263.300 330.156,263.584 330.408,263.931 330.535 C 265.099 330.963,266.546 331.867,266.546 332.169 C 266.546 332.333,266.830 332.566,267.178 332.686 C 267.525 332.806,268.296 333.233,268.891 333.634 C 269.486 334.035,270.257 334.462,270.604 334.582 C 270.951 334.702,271.235 334.947,271.235 335.128 C 271.235 335.308,271.601 335.613,272.047 335.806 C 273.260 336.331,274.266 337.005,274.590 337.511 C 274.748 337.759,275.049 337.962,275.259 337.962 C 275.468 337.962,276.150 338.370,276.774 338.869 C 277.398 339.368,278.070 339.904,278.269 340.060 C 278.467 340.215,278.934 340.459,279.306 340.602 C 281.062 341.272,280.974 345.535,280.974 259.830 L 280.974 179.621 279.497 179.621 C 278.199 179.621,276.091 180.427,275.560 181.126 C 275.459 181.259,274.931 181.479,274.388 181.616 C 273.844 181.752,273.399 181.995,273.399 182.157 C 273.399 182.318,272.913 182.556,272.317 182.687 C 271.722 182.818,271.235 183.074,271.235 183.257 C 271.235 183.439,271.035 183.589,270.789 183.589 C 270.259 183.589,261.399 187.923,261.133 188.312 C 261.031 188.460,260.504 188.693,259.960 188.829 C 259.417 188.966,258.972 189.209,258.972 189.370 C 258.972 189.531,258.485 189.770,257.890 189.901 C 257.295 190.032,256.808 190.288,256.808 190.470 C 256.808 190.653,256.621 190.803,256.392 190.803 C 255.880 190.803,246.960 195.151,246.705 195.525 C 246.604 195.673,246.076 195.907,245.533 196.043 C 244.989 196.179,244.545 196.423,244.545 196.584 C 244.545 196.745,244.058 196.984,243.463 197.115 C 242.867 197.245,242.381 197.484,242.381 197.645 C 242.381 197.806,241.934 198.049,241.389 198.184 C 240.843 198.320,240.032 198.771,239.585 199.188 L 238.774 199.945 238.774 228.918 C 238.774 247.992,238.650 257.890,238.413 257.890 C 238.215 257.890,238.052 257.728,238.052 257.529 C 238.052 257.331,237.883 257.169,237.677 257.169 C 237.355 257.169,235.349 255.909,234.806 255.365 C 234.487 255.046,233.207 254.292,232.372 253.931 C 231.925 253.738,231.560 253.452,231.560 253.296 C 231.560 253.012,230.504 252.364,229.306 251.912 C 228.959 251.781,228.674 251.527,228.674 251.347 C 228.674 251.167,228.309 250.861,227.863 250.668 C 227.028 250.307,225.747 249.553,225.428 249.234 C 224.885 248.690,222.879 247.430,222.557 247.430 C 222.351 247.430,222.182 247.279,222.182 247.094 C 222.182 246.909,221.817 246.642,221.371 246.501 C 220.924 246.360,220.347 245.943,220.088 245.575 C 219.829 245.207,219.457 244.905,219.262 244.905 C 218.850 244.905,216.649 243.412,216.471 243.012 C 216.405 242.863,216.196 242.741,216.006 242.741 C 215.707 242.741,213.684 241.457,213.165 240.938 C 212.846 240.619,211.566 239.864,210.730 239.503 C 210.284 239.310,209.919 239.024,209.919 238.868 C 209.919 238.585,208.863 237.937,207.665 237.485 C 207.317 237.354,207.033 237.099,207.033 236.919 C 207.033 236.739,206.668 236.434,206.222 236.241 C 205.387 235.880,204.106 235.125,203.787 234.806 C 203.244 234.263,201.238 233.003,200.916 233.003 C 200.710 233.003,200.541 232.851,200.541 232.666 C 200.541 232.481,200.176 232.215,199.729 232.074 C 199.283 231.933,198.706 231.516,198.447 231.148 C 198.187 230.779,197.816 230.478,197.620 230.478 C 197.209 230.478,195.008 228.984,194.830 228.584 C 194.764 228.436,194.555 228.314,194.365 228.314 C 194.066 228.314,192.043 227.030,191.524 226.510 C 191.205 226.191,189.924 225.437,189.089 225.076 C 188.643 224.883,188.278 224.597,188.278 224.441 C 188.278 224.158,187.222 223.510,186.023 223.058 C 185.676 222.927,185.392 222.672,185.392 222.492 C 185.392 222.312,185.027 222.006,184.581 221.813 C 183.746 221.452,182.465 220.698,182.146 220.379 C 181.603 219.835,179.597 218.575,179.275 218.575 C 179.069 218.575,178.900 218.424,178.900 218.239 C 178.900 218.054,178.535 217.787,178.088 217.646 C 177.642 217.505,177.065 217.088,176.806 216.720 C 176.546 216.352,176.175 216.050,175.979 216.050 C 175.568 216.050,173.367 214.557,173.189 214.157 C 173.123 214.008,172.913 213.886,172.724 213.886 C 172.425 213.886,170.402 212.602,169.883 212.083 C 169.564 211.764,168.283 211.009,167.448 210.648 C 167.002 210.455,166.637 210.150,166.637 209.970 C 166.637 209.790,166.353 209.535,166.005 209.404 C 164.807 208.952,163.751 208.304,163.751 208.021 C 163.751 207.865,163.386 207.579,162.940 207.386 C 162.104 207.025,160.824 206.270,160.505 205.951 C 159.962 205.408,157.956 204.148,157.634 204.148 C 157.428 204.148,157.259 203.997,157.259 203.812 C 157.259 203.626,156.894 203.360,156.447 203.219 C 156.001 203.078,155.424 202.661,155.164 202.293 C 154.905 201.924,154.533 201.623,154.338 201.623 C 153.927 201.623,151.726 200.130,151.548 199.729 C 151.482 199.581,151.272 199.459,151.082 199.459 C 150.784 199.459,148.761 198.175,148.242 197.656 C 147.923 197.337,146.642 196.582,145.807 196.221 C 145.361 196.028,144.995 195.742,144.995 195.586 C 144.995 195.303,143.939 194.655,142.741 194.203 C 142.394 194.072,142.110 193.817,142.110 193.637 C 142.110 193.457,141.745 193.152,141.298 192.959 C 140.463 192.597,139.183 191.843,138.864 191.524 C 138.321 190.981,136.315 189.720,135.993 189.720 C 135.787 189.720,135.618 189.569,135.618 189.384 C 135.618 189.199,135.252 188.932,134.806 188.791 C 134.360 188.650,133.783 188.234,133.523 187.865 C 133.264 187.497,132.892 187.196,132.697 187.196 C 132.285 187.196,130.085 185.702,129.907 185.302 C 129.841 185.153,129.631 185.032,129.441 185.032 C 129.037 185.032,126.836 183.533,126.661 183.138 C 126.595 182.989,126.385 182.867,126.195 182.867 C 125.791 182.867,123.590 181.369,123.414 180.974 C 123.348 180.825,123.084 180.703,122.827 180.703 C 122.571 180.703,122.159 180.460,121.912 180.162 C 121.665 179.865,120.995 179.621,120.424 179.621 L 119.385 179.621 119.476 260.144 " stroke="none" fill="#049cfc" fill-rule="evenodd"></path><path id="path1" d="" stroke="none" fill="#089cfc" fill-rule="evenodd"></path><path id="path2" d="" stroke="none" fill="#089cfc" fill-rule="evenodd"></path><path id="path3" d="" stroke="none" fill="#089cfc" fill-rule="evenodd"></path><path id="path4" d="" stroke="none" fill="#089cfc" fill-rule="evenodd"></path></g></svg>